<svg xmlns="http://www.w3.org/2000/svg" width="26.964" height="20" viewBox="0 0 26.964 20">
  <g id="_360" data-name="360" transform="translate(3 -63.016)">
    <path id="Path_32866" data-name="Path 32866" d="M-3,204.539c.066-.234.119-.472.2-.7a5.162,5.162,0,0,1,1.947-2.422c.246-.182.505-.349.768-.507A.789.789,0,0,1,1,201.152a.78.78,0,0,1-.247,1.085,7.867,7.867,0,0,0-1.279.964,2.2,2.2,0,0,0-.015,3.524,8.565,8.565,0,0,0,3.078,1.82,19.837,19.837,0,0,0,5.119,1.144c-.222-.226-.42-.414-.6-.617a.788.788,0,0,1,1.123-1.106c.026.023.051.049.075.073q.987.986,1.972,1.973a.8.8,0,0,1,0,1.246q-.984.989-1.973,1.973a.794.794,0,0,1-1.189.062.8.8,0,0,1,.069-1.17c.254-.252.518-.5.833-.8-.481-.058-.877-.1-1.272-.155a19.008,19.008,0,0,1-6.246-1.839A7.3,7.3,0,0,1-2.37,206.98a4.649,4.649,0,0,1-.63-1.6Z" transform="translate(0 -130.517)" fill="#fff"/>
    <path id="Path_32867" data-name="Path 32867" d="M315.054,211.078a4.5,4.5,0,0,1-1.25,2.38,8.427,8.427,0,0,1-2.007,1.476,17.643,17.643,0,0,1-5.394,1.775c-.4.071-.8.126-1.2.18a.787.787,0,0,1-.927-.683.778.778,0,0,1,.692-.869,21.187,21.187,0,0,0,4.416-1.048,9.967,9.967,0,0,0,2.752-1.462,4.186,4.186,0,0,0,.984-1.052,1.937,1.937,0,0,0-.008-2.227,4.741,4.741,0,0,0-1.307-1.282.775.775,0,0,1-.355-.794.747.747,0,0,1,.534-.624.673.673,0,0,1,.609.056,5.249,5.249,0,0,1,2.329,2.852c.052.175.086.355.128.532Z" transform="translate(-291.091 -136.213)" fill="#fff"/>
    <path id="Path_32868" data-name="Path 32868" d="M207.3,156.275a2.113,2.113,0,0,1,1.836-.355,1.671,1.671,0,0,1,1.475,1.523,3.508,3.508,0,0,1-.023,1.283,1.923,1.923,0,0,1-1.5,1.58,3.538,3.538,0,0,1-1.669.024,1.983,1.983,0,0,1-1.657-2q-.039-1.605,0-3.212a2,2,0,0,1,1.67-1.988,3.481,3.481,0,0,1,1.9.067,1.845,1.845,0,0,1,1.327,1.74.524.524,0,0,1-.524.6,1.423,1.423,0,0,1-.626-.044.49.49,0,0,1-.383-.448.6.6,0,0,0-.544-.606.919.919,0,0,0-1.272.949C207.288,155.669,207.3,155.947,207.3,156.275Zm1.79,1.788c0-.056-.006-.171-.021-.284a.743.743,0,0,0-.749-.7c-.678-.053-1,.237-1.019.92a2.412,2.412,0,0,0,.011.315.871.871,0,0,0,1.216.8C208.914,158.99,209.085,158.691,209.086,158.063Z" transform="translate(-197.743 -85.279)" fill="#fff"/>
    <path id="Path_32869" data-name="Path 32869" d="M326.428,156.7c0,.544.02,1.088,0,1.631a2.009,2.009,0,0,1-1.783,1.994,3.58,3.58,0,0,1-1.615-.069,1.919,1.919,0,0,1-1.467-1.87,23.16,23.16,0,0,1,.019-3.494,1.909,1.909,0,0,1,1.662-1.809,3.492,3.492,0,0,1,1.667.042,1.981,1.981,0,0,1,1.517,1.945C326.446,155.612,326.429,156.156,326.428,156.7Zm-3.328-.011h.007c0,.517-.018,1.035.005,1.551a.757.757,0,0,0,.8.772.793.793,0,0,0,.945-.7,2.04,2.04,0,0,0,.033-.339q0-1.275,0-2.551a2.14,2.14,0,0,0-.04-.391.763.763,0,0,0-.717-.657.831.831,0,0,0-1.027.892C323.089,155.742,323.1,156.215,323.1,156.689Z" transform="translate(-307.413 -85.246)" fill="#fff"/>
    <path id="Path_32870" data-name="Path 32870" d="M94.4,156.416c.964.476,1.1,1.122.935,2.209A1.969,1.969,0,0,1,93.6,160.28a3.59,3.59,0,0,1-1.793-.1,1.847,1.847,0,0,1-1.323-1.66c-.021-.423.109-.582.525-.621a2.535,2.535,0,0,1,.446,0c.444.038.527.116.571.554a.5.5,0,0,0,.374.456,1.74,1.74,0,0,0,.934.023.572.572,0,0,0,.453-.46,2.092,2.092,0,0,0,.017-.835.574.574,0,0,0-.459-.486,1.909,1.909,0,0,0-.363-.053c-.211-.01-.411-.039-.5-.267a.825.825,0,0,1,.061-.78.437.437,0,0,1,.372-.157.848.848,0,0,0,.621-1.321.536.536,0,0,0-.367-.233,1.612,1.612,0,0,0-.6,0,.442.442,0,0,0-.394.424c-.056.49-.2.612-.7.622-.787.016-.97-.19-.811-.961a1.722,1.722,0,0,1,1.386-1.352,3.564,3.564,0,0,1,1.8,0,1.661,1.661,0,0,1,1.276,2A1.7,1.7,0,0,1,94.4,156.416Z" transform="translate(-88.556 -85.21)" fill="#fff"/>
    <path id="Path_32871" data-name="Path 32871" d="M411.053,65.4a2.367,2.367,0,1,1-2.338-2.382A2.364,2.364,0,0,1,411.053,65.4Zm-1.58-.02a.786.786,0,0,0-.791-.781.789.789,0,1,0,.015,1.578A.786.786,0,0,0,409.473,65.378Z" transform="translate(-387.762 0)" fill="#fff"/>
  </g>
</svg>
