<svg xmlns="http://www.w3.org/2000/svg" width="27.451" height="50" viewBox="0 0 27.451 50">
  <g id="Group_31950" data-name="Group 31950" transform="translate(-80.043 62)">
    <path id="Path_32739" data-name="Path 32739" d="M85.515-12a9.875,9.875,0,0,1-1.85-.558,6.019,6.019,0,0,1-3.607-5.7c-.028-7.286-.011-14.572-.009-21.858a5.189,5.189,0,0,1,1.827-4.061c1.329-1.171,2.655-2.346,4.005-3.494a.673.673,0,0,0,.24-.866,11.162,11.162,0,0,1,.26-8.02,8.755,8.755,0,0,1,4.732-4.933A17.774,17.774,0,0,1,92.976-62h1.587a5.388,5.388,0,0,0,1.031.248,8.379,8.379,0,0,1,5.057,4.181,10.931,10.931,0,0,1,1.364,5.278,1.253,1.253,0,0,1-1.136,1.332A1.22,1.22,0,0,1,99.566-52.2a9.059,9.059,0,0,0-.922-3.94,6.043,6.043,0,0,0-3.25-3.1,4.828,4.828,0,0,0-5.386,1.479,8.343,8.343,0,0,0-1.858,7.3c.119.674.138.668.649.219.973-.855,1.945-1.712,2.925-2.559a2.919,2.919,0,0,1,4.092.009q4.912,4.293,9.819,8.594a5.209,5.209,0,0,1,1.855,4.089q0,10.908,0,21.817a6.15,6.15,0,0,1-4.849,6.152,1.665,1.665,0,0,0-.613.141Zm19.5-17.116c0-3.61-.01-7.22.006-10.83a3.079,3.079,0,0,0-1.125-2.507c-.8-.676-1.574-1.373-2.36-2.061Q97.9-47.7,94.258-50.888c-.415-.363-.57-.379-.922-.071-1.266,1.1-2.525,2.214-3.793,3.315-.156.135-.205.234-.065.422a6.442,6.442,0,0,0,1.807,1.7,5.265,5.265,0,0,0,2.524.724,1.221,1.221,0,0,1,1.164,1.261,1.221,1.221,0,0,1-1.255,1.167,7.16,7.16,0,0,1-.948-.066,7.7,7.7,0,0,1-5.1-3.122c-.16-.207-.248-.226-.447-.049q-1.794,1.594-3.61,3.163a3.038,3.038,0,0,0-1.116,2.471c.018,1.52,0,3.041,0,4.562q0,8.489,0,16.979a3.692,3.692,0,0,0,3.773,3.966q7.5.04,15,0a3.672,3.672,0,0,0,3.752-3.858Q105.014-23.721,105.018-29.116Z" transform="translate(0 0)" fill="#90c14f"/>
    <path id="Path_32740" data-name="Path 32740" d="M188,234.353c.754,0,1.508.006,2.262,0a1.726,1.726,0,1,0,.041-3.449c-1.07-.035-2.141.032-3.211-.057a4.235,4.235,0,0,1-3.573-3.527,4.119,4.119,0,0,1,2.293-4.356,3.03,3.03,0,0,1,1.478-.4c.421,0,.514-.173.481-.547a8.289,8.289,0,0,1,0-.991,1.233,1.233,0,1,1,2.46.015c.009.4.011.794,0,1.19-.006.225.082.3.3.3.555-.011,1.111-.006,1.666,0,.873,0,1.44.5,1.433,1.241a1.265,1.265,0,0,1-1.42,1.215c-1.521,0-3.042-.012-4.563.007a1.715,1.715,0,0,0-1.666,2.147,1.624,1.624,0,0,0,1.452,1.269c.883.05,1.771.028,2.657.038a4.822,4.822,0,0,1,2.426.616,4.344,4.344,0,0,1,2,3.883,4.2,4.2,0,0,1-3.979,3.859c-.242.009-.321.1-.313.332.014.409.012.82,0,1.23a1.231,1.231,0,1,1-2.458,0c-.013-.383-.019-.768,0-1.15.016-.3-.064-.423-.392-.409-.607.027-1.217.014-1.825,0a1.232,1.232,0,0,1-1.275-1.192,1.25,1.25,0,0,1,1.263-1.256c.82-.015,1.64,0,2.46,0Z" transform="translate(-95.238 -259.348)" fill="#90c14f"/>
  </g>
</svg>
