<svg xmlns="http://www.w3.org/2000/svg" width="21.501" height="19.633" viewBox="0 0 21.501 19.633">
  <g id="amenities6" transform="translate(-1.249 -2.117)">
    <path id="Path_32851" data-name="Path 32851" d="M16,5l3,3L17,9l4,4-3,1,4,4H13" fill="none" stroke="#000" stroke-linecap="round" stroke-linejoin="round" stroke-width="1.5"/>
    <path id="Path_32852" data-name="Path 32852" d="M15,21V18" fill="none" stroke="#000" stroke-linecap="round" stroke-linejoin="round" stroke-width="1.5"/>
    <path id="Path_32853" data-name="Path 32853" d="M8,13,6,11" fill="none" stroke="#000" stroke-linecap="round" stroke-linejoin="round" stroke-width="1.5"/>
    <path id="Path_32854" data-name="Path 32854" d="M8,12l2-2" fill="none" stroke="#000" stroke-linecap="round" stroke-linejoin="round" stroke-width="1.5"/>
    <path id="Path_32855" data-name="Path 32855" d="M8,21V8" fill="none" stroke="#000" stroke-linecap="round" stroke-linejoin="round" stroke-width="1.5"/>
    <path id="Path_32856" data-name="Path 32856" d="M5.824,16a3,3,0,0,1-2.743-3.69,3,3,0,0,1,.3-4.833A3,3,0,0,1,8,3.77a3,3,0,0,1,4.614,3.707,3,3,0,0,1,.305,4.833A3,3,0,0,1,10,16.005H6Z" fill="none" stroke="#000" stroke-linecap="round" stroke-linejoin="round" stroke-width="1.5"/>
  </g>
</svg>
