<svg xmlns="http://www.w3.org/2000/svg" width="18.066" height="16" viewBox="0 0 18.066 16">
  <g id="amenities7" transform="translate(284.25 -213.23)">
    <path id="Path_32857" data-name="Path 32857" d="M-284.25,220.869c.039-.148.071-.3.118-.445a2.8,2.8,0,0,1,1.931-1.914.347.347,0,0,0,.263-.269c.291-.979.581-1.959.881-2.936a2.8,2.8,0,0,1,2.808-2.074q3.032,0,6.064,0a2.8,2.8,0,0,1,2.807,2.076q.446,1.453.873,2.911a.381.381,0,0,0,.3.3,2.81,2.81,0,0,1,2.018,2.669c.012,1.376.006,2.752,0,4.129a.764.764,0,0,1-.807.811c-.18,0-.233.047-.228.229a3.615,3.615,0,0,1-.065,1.1,2.294,2.294,0,0,1-1.8,1.722c-.049.011-.1.032-.145.048h-.619c-.065-.019-.13-.04-.2-.057a2.309,2.309,0,0,1-1.749-1.711,3.481,3.481,0,0,1-.064-1.077c.007-.2-.045-.258-.252-.257-1.788.009-3.576.005-5.363.005-.3,0-.6.009-.9,0-.164-.007-.208.049-.2.2.012.206.006.412,0,.619a2.32,2.32,0,0,1-1.545,2.141c-.152.054-.311.092-.466.137h-.619a.891.891,0,0,0-.118-.044,2.287,2.287,0,0,1-1.866-1.966,7.114,7.114,0,0,1-.028-.922c0-.09,0-.176-.127-.164a.875.875,0,0,1-.905-.568Zm9,3.716h4.694c.868,0,1.737,0,2.6,0,.168,0,.221-.044.216-.214-.012-.386-.011-.774,0-1.16,0-.157-.061-.183-.2-.18-.344.008-.688,0-1.032,0a.782.782,0,0,1-.839-.784.782.782,0,0,1,.834-.763c.352,0,.705-.006,1.057,0,.135,0,.172-.04.176-.174a1.294,1.294,0,0,0-1.3-1.374q-6.19-.007-12.379,0a1.292,1.292,0,0,0-1.3,1.346c0,.154.035.21.2.2.343-.013.688-.006,1.031,0a.781.781,0,0,1,.836.76.78.78,0,0,1-.836.787c-.344,0-.688.01-1.031,0-.164-.006-.2.05-.2.2.01.361.017.723,0,1.083-.011.213.049.271.266.27C-280.042,224.582-277.644,224.585-275.245,224.585Zm5.147-6.2a.328.328,0,0,0,0-.083c-.267-.9-.522-1.8-.81-2.687a1.229,1.229,0,0,0-1.214-.833q-3.1,0-6.191,0a1.26,1.26,0,0,0-1.249.929c-.11.343-.208.69-.312,1.035l-.492,1.638Zm-11.571,8.224c0,.1,0,.206,0,.309a.78.78,0,0,0,.777.765.776.776,0,0,0,.767-.747c.01-.214,0-.429.005-.643,0-.125-.042-.162-.163-.16-.308.007-.617,0-.926,0C-281.67,226.133-281.67,226.133-281.669,226.607Zm12.127-.474c-.847,0-.847,0-.772.83,0,.009,0,.017,0,.026a.775.775,0,0,0,.972.66c.5-.147.743-.669.552-1.4-.07-.27-.432-.052-.651-.113A.4.4,0,0,0-269.542,226.133Z" fill="#181818"/>
    <path id="Path_32858" data-name="Path 32858" d="M-191.4,334.791c-.661,0-1.322,0-1.983,0a.784.784,0,0,1-.854-.767.785.785,0,0,1,.866-.78q1.971,0,3.941,0a.784.784,0,0,1,.867.78.788.788,0,0,1-.879.768Q-190.421,334.793-191.4,334.791Z" transform="translate(-83.819 -111.754)" fill="#181818"/>
  </g>
</svg>
