<svg xmlns="http://www.w3.org/2000/svg" width="22.128" height="22.326" viewBox="0 0 22.128 22.326">
  <g id="auction" transform="translate(-1.787 -1.787)">
    <path id="Path_32908" data-name="Path 32908" d="M13.318,10l8.164,8.2a2.324,2.324,0,0,1-3.291,3.281L10,13.318" transform="translate(0.75 0.75)" fill="none" stroke="#8f8f8f" stroke-linecap="round" stroke-linejoin="round" stroke-width="2"/>
    <path id="Path_32909" data-name="Path 32909" d="M6,9l4.423,4.423" transform="translate(0.327 0.644)" fill="none" stroke="#8f8f8f" stroke-linecap="round" stroke-linejoin="round" stroke-width="2"/>
    <path id="Path_32910" data-name="Path 32910" d="M13.423,10.423,9,6" transform="translate(0.644 0.327)" fill="none" stroke="#8f8f8f" stroke-linecap="round" stroke-linejoin="round" stroke-width="2"/>
    <path id="Path_32911" data-name="Path 32911" d="M3,21h7.741" transform="translate(0.009 1.914)" fill="none" stroke="#8f8f8f" stroke-linecap="round" stroke-linejoin="round" stroke-width="2"/>
    <path id="Path_32912" data-name="Path 32912" d="M7.2,17.156,3.238,13.191a1.106,1.106,0,0,1,0-1.564L5.774,9.091l.553.553L9.644,6.327l-.553-.553,2.536-2.536a1.106,1.106,0,0,1,1.564,0L17.156,7.2a1.106,1.106,0,0,1,0,1.564L14.62,11.3l-.553-.553L10.75,14.067l.553.553L8.767,17.156a1.106,1.106,0,0,1-1.564,0Z" transform="translate(0)" fill="none" stroke="#8f8f8f" stroke-linecap="round" stroke-linejoin="round" stroke-width="2"/>
  </g>
</svg>
