<svg xmlns="http://www.w3.org/2000/svg" width="33.75" height="33.835" viewBox="0 0 33.75 33.835">
  <path id="bathroom_detail" d="M32.625,19.688h-27V7.031A3.6,3.6,0,0,1,6.688,4.466l.028-.028a3.635,3.635,0,0,1,4.12-.715,5.562,5.562,0,0,0,.828,6.794l.77.77L11.017,12.7,12.608,14.3l1.417-1.417,7.853-7.853L23.3,3.608,21.7,2.017,20.287,3.434l-.77-.77a5.561,5.561,0,0,0-7.1-.631,5.879,5.879,0,0,0-7.3.814L5.1,2.875A5.84,5.84,0,0,0,3.375,7.031V19.687H1.125v2.25h2.25V24.1a1.684,1.684,0,0,0,.087.534l2.093,6.279a1.685,1.685,0,0,0,1.6,1.154h.907l-.82,2.812H9.586l.82-2.812H25.038l.844,2.813H28.23l-.844-2.813h1.458a1.685,1.685,0,0,0,1.6-1.154l2.093-6.279a1.686,1.686,0,0,0,.087-.534V21.938h2.25v-2.25ZM13.255,4.255a3.306,3.306,0,0,1,4.671,0l.77.77L14.025,9.7l-.77-.77A3.307,3.307,0,0,1,13.255,4.255ZM30.375,24l-1.936,5.808H7.561L5.625,24V21.938h24.75Z" transform="translate(-1.125 -1.041)" fill="#90c14f"/>
</svg>
