<svg xmlns="http://www.w3.org/2000/svg" width="15.5" height="15.79" viewBox="0 0 15.5 15.79">
  <g id="Group_31805" data-name="Group 31805" transform="translate(-2.25 -2.25)">
    <path id="Path_32629" data-name="Path 32629" d="M3.778,12H16.222a.778.778,0,0,1,.778.778v2.333a3.111,3.111,0,0,1-3.111,3.111H6.111A3.111,3.111,0,0,1,3,15.111V12.778A.778.778,0,0,1,3.778,12Z" transform="translate(0 -2)" fill="none" stroke="#181818" stroke-linecap="round" stroke-linejoin="round" stroke-width="1.5"/>
    <path id="Path_32630" data-name="Path 32630" d="M6,10V4.556A1.556,1.556,0,0,1,7.556,3H9.889V4.75" transform="translate(-0.667 0)" fill="none" stroke="#181818" stroke-linecap="round" stroke-linejoin="round" stroke-width="1.5"/>
    <path id="Path_32631" data-name="Path 32631" d="M4,20.667,4.778,19.5" transform="translate(-0.222 -3.667)" fill="none" stroke="#181818" stroke-linecap="round" stroke-linejoin="round" stroke-width="1.5"/>
    <path id="Path_32632" data-name="Path 32632" d="M19.778,20.667,19,19.5" transform="translate(-3.556 -3.667)" fill="none" stroke="#181818" stroke-linecap="round" stroke-linejoin="round" stroke-width="1.5"/>
  </g>
</svg>
