<svg xmlns="http://www.w3.org/2000/svg" width="31.501" height="24.75" viewBox="0 0 31.501 24.75">
  <g id="bedroom_detail" transform="translate(-2.25 -5.625)">
    <path id="Path_32878" data-name="Path 32878" d="M27,16.875H6.75V9.563A2.821,2.821,0,0,1,9.563,6.75H26.438a2.821,2.821,0,0,1,2.813,2.813v7.313Z" fill="none" stroke="#90c14f" stroke-linecap="round" stroke-linejoin="round" stroke-width="2.25"/>
    <path id="Path_32879" data-name="Path 32879" d="M3.375,29.25V21.375a4.513,4.513,0,0,1,4.5-4.5h20.25a4.513,4.513,0,0,1,4.5,4.5V29.25" fill="none" stroke="#90c14f" stroke-linecap="round" stroke-linejoin="round" stroke-width="2.25"/>
    <path id="Path_32880" data-name="Path 32880" d="M3.375,29.25v-.563A1.692,1.692,0,0,1,5.063,27H30.938a1.692,1.692,0,0,1,1.688,1.688v.563" fill="none" stroke="#90c14f" stroke-linecap="round" stroke-linejoin="round" stroke-width="2.25"/>
    <path id="Path_32881" data-name="Path 32881" d="M7.875,16.875V15.75a2.256,2.256,0,0,1,2.25-2.25H15.75A2.256,2.256,0,0,1,18,15.75v1.125" fill="none" stroke="#90c14f" stroke-linecap="round" stroke-linejoin="round" stroke-width="2.25"/>
    <path id="Path_32882" data-name="Path 32882" d="M18,16.875V15.75a2.256,2.256,0,0,1,2.25-2.25h5.625a2.256,2.256,0,0,1,2.25,2.25v1.125" fill="none" stroke="#90c14f" stroke-linecap="round" stroke-linejoin="round" stroke-width="2.25"/>
  </g>
</svg>
