<svg xmlns="http://www.w3.org/2000/svg" width="15.722" height="17.5" viewBox="0 0 15.722 17.5">
  <g id="Group_32422" data-name="Group 32422" transform="translate(-3.25 -2.25)">
    <path id="Path_32952" data-name="Path 32952" d="M4,5,4,6.778A1.778,1.778,0,0,1,5.778,5H16.444a1.778,1.778,0,0,1,1.778,1.778V17.444a1.778,1.778,0,0,1-1.778,1.778H5.778A1.778,1.778,0,0,1,4,17.444Z" transform="translate(0 -0.222)" fill="none" stroke="#6b6b6b" stroke-linecap="round" stroke-linejoin="round" stroke-width="1.5"/>
    <path id="Path_32953" data-name="Path 32953" d="M16,3V6.556" transform="translate(-1.333)" fill="none" stroke="#6b6b6b" stroke-linecap="round" stroke-linejoin="round" stroke-width="1.5"/>
    <path id="Path_32954" data-name="Path 32954" d="M8,3V6.556" transform="translate(-0.444)" fill="none" stroke="#6b6b6b" stroke-linecap="round" stroke-linejoin="round" stroke-width="1.5"/>
    <path id="Path_32955" data-name="Path 32955" d="M4,11H18.222" transform="translate(0 -0.889)" fill="none" stroke="#6b6b6b" stroke-linecap="round" stroke-linejoin="round" stroke-width="1.5"/>
    <path id="Path_32956" data-name="Path 32956" d="M8,15H9.778v1.778H8Z" transform="translate(-0.444 -1.333)" fill="none" stroke="#6b6b6b" stroke-linecap="round" stroke-linejoin="round" stroke-width="1.5"/>
  </g>
</svg>
