<svg id="camera_profile" xmlns="http://www.w3.org/2000/svg" width="18.408" height="13.806" viewBox="0 0 18.408 13.806">
  <path id="Path_1562" data-name="Path 1562" d="M19.47,18.049a2.756,2.756,0,1,1-2.756-2.756A2.756,2.756,0,0,1,19.47,18.049Z" transform="translate(-7.51 -10.236)" fill="#fff"/>
  <path id="Path_1563" data-name="Path 1563" d="M21.446,10.176H18.833a.778.778,0,0,1-.575-.259c-1.361-1.524-1.874-2.042-2.43-2.042h-4.1c-.561,0-1.112.518-2.478,2.047a.763.763,0,0,1-.57.254h-.2V9.792A.385.385,0,0,0,8.1,9.409H6.854a.385.385,0,0,0-.383.383v.383h-.36A1.555,1.555,0,0,0,4.5,11.648v8.437a1.66,1.66,0,0,0,1.606,1.6h15.34a1.537,1.537,0,0,0,1.462-1.6V11.648A1.429,1.429,0,0,0,21.446,10.176ZM13.9,19.782a4.1,4.1,0,1,1,3.9-3.9A4.1,4.1,0,0,1,13.9,19.782Zm4.41-6.826a.623.623,0,1,1,.623-.623A.622.622,0,0,1,18.306,12.956Z" transform="translate(-4.5 -7.875)" fill="#fff"/>
</svg>
