<svg xmlns="http://www.w3.org/2000/svg" width="24" height="28.364" viewBox="0 0 24 28.364">
  <path id="icons8-delete" d="M11.81,1A3.281,3.281,0,0,0,8.545,4.264v1.1H2V7.545H4.182V26.091a3.274,3.274,0,0,0,3.273,3.273H20.545a3.274,3.274,0,0,0,3.273-3.273V7.545H26V5.364H19.455v-1.1A3.281,3.281,0,0,0,16.19,1Zm0,2.182H16.19a1.063,1.063,0,0,1,1.082,1.082v1.1H10.727v-1.1A1.063,1.063,0,0,1,11.81,3.182ZM8.545,9.727h2.182V25H8.545Zm4.364,0h2.182V25H12.909Zm4.364,0h2.182V25H17.273Z" transform="translate(-2 -1)" fill="#ff4a4a"/>
</svg>
