<svg xmlns="http://www.w3.org/2000/svg" width="223" height="52" viewBox="0 0 223 52">
  <g id="Group_31253" data-name="Group 31253" transform="translate(-997 -897)">
    <rect id="Rectangle_17650" data-name="Rectangle 17650" width="223" height="52" rx="8" transform="translate(997 897)" fill="#295396"/>
    <g id="Group_31252" data-name="Group 31252" transform="translate(50.477)">
      <path id="XMLID_1_" d="M432.032,366.594c0-1.566-.006-3.131.006-4.7,0-.264-.072-.346-.336-.336-.488.02-.977,0-1.466.009-.2.005-.271-.05-.268-.259q.015-1.465,0-2.931c0-.188.055-.25.245-.246.5.012,1-.014,1.5.011.289.014.349-.089.343-.357q-.026-1.115,0-2.232a4.28,4.28,0,0,1,.8-2.494,3.468,3.468,0,0,1,2.78-1.413c1.153-.051,2.309-.023,3.464-.035.161,0,.209.056.208.212q-.008,1.482,0,2.964c0,.176-.056.23-.228.227-.555-.009-1.111,0-1.666,0a1.1,1.1,0,0,0-1.228,1.114c-.037.586-.01,1.176-.024,1.765-.005.21.12.2.258.2.844,0,1.688.008,2.532-.006.248,0,.329.053.3.313-.106.982-.2,1.965-.281,2.95-.019.222-.121.264-.32.261-.666-.01-1.332-.007-2,0-.478,0-.432-.07-.432.418,0,3.065-.006,6.129.007,9.194,0,.324-.081.4-.4.4q-1.715-.032-3.431,0c-.322.006-.375-.1-.373-.39C432.039,369.681,432.032,368.138,432.032,366.594Z" transform="translate(581.556 561.385)" fill="#fff" fill-rule="evenodd"/>
      <text id="Facebook" transform="translate(1031 929)" fill="#fff" font-size="16" font-family="NetflixSans-Regular, Netflix Sans"><tspan x="0" y="0">Facebook</tspan></text>
    </g>
  </g>
</svg>
