<svg xmlns="http://www.w3.org/2000/svg" width="31" height="31" viewBox="0 0 31 31">
  <g id="feature3" transform="translate(-970 -1662)">
    <circle id="Ellipse_1144" data-name="Ellipse 1144" cx="15.5" cy="15.5" r="15.5" transform="translate(970 1662)" fill="#f2f6ed"/>
    <g id="Group_32075" data-name="Group 32075" transform="translate(864.237 1609.25)">
      <path id="Path_32814" data-name="Path 32814" d="M121.065,76.75c-.3-.061-.6-.086-.9-.152a5.789,5.789,0,0,1-4.318-4.53,5.726,5.726,0,0,1,.62-3.623,28.8,28.8,0,0,1,2.021-3.279c.711-1.058,1.454-2.095,2.071-3.213a5.727,5.727,0,0,0,.361-.743.719.719,0,0,1,.43-.46h.25a.783.783,0,0,1,.435.477,13.794,13.794,0,0,0,1.232,2.167c.817,1.25,1.7,2.458,2.48,3.73A10.188,10.188,0,0,1,127,69.781a5.231,5.231,0,0,1-.832,4.5,5.6,5.6,0,0,1-4.013,2.434.731.731,0,0,0-.275.038Zm.4-14.452c-.123.226-.232.432-.346.636-.669,1.2-1.432,2.331-2.188,3.472a19.013,19.013,0,0,0-1.727,3.05,3.99,3.99,0,0,0-.288,2.529,4.659,4.659,0,0,0,7.85,2.325,4.318,4.318,0,0,0,.963-4.871,19.348,19.348,0,0,0-1.341-2.446c-.765-1.184-1.573-2.341-2.284-3.56C121.891,63.066,121.688,62.692,121.465,62.3Z" fill="#999b96" stroke="#999b96" stroke-width="0.3"/>
      <path id="Path_32815" data-name="Path 32815" d="M244.438,281.955a3.982,3.982,0,0,1-3.57,3.781,3.114,3.114,0,0,1-.437.014.529.529,0,0,1-.045-1.054,6.908,6.908,0,0,0,.7-.075,2.9,2.9,0,0,0,2.281-2.69c0-.068,0-.136.011-.2a.532.532,0,0,1,1.062.04C244.44,281.83,244.438,281.893,244.438,281.955Z" transform="translate(-118.982 -211.305)" fill="#999b96" stroke="#999b96" stroke-width="0.3"/>
    </g>
  </g>
</svg>
