<svg xmlns="http://www.w3.org/2000/svg" width="31" height="31" viewBox="0 0 31 31">
  <g id="feature1" transform="translate(-345 -1662)">
    <circle id="Ellipse_1140" data-name="Ellipse 1140" cx="15.5" cy="15.5" r="15.5" transform="translate(345 1662)" fill="#f2f6ed"/>
    <g id="Group_32071" data-name="Group 32071" transform="translate(305.94 1476.127)">
      <path id="Path_32795" data-name="Path 32795" d="M55.032,193.876q2.82,0,5.641,0a2.448,2.448,0,0,1,2.4,1.754c.272.831.56,1.657.827,2.49a.431.431,0,0,0,.318.288,2.471,2.471,0,0,1,.446,4.476.585.585,0,0,0-.3.432c-.235,1.212-.479,2.423-.722,3.634-.112.558-.281.7-.852.72-.173,0-.207.048-.146.211.126.337.236.681.35,1.022a.674.674,0,0,1-.434.925.661.661,0,0,1-.853-.488c-.162-.47-.329-.939-.469-1.416-.06-.2-.157-.256-.362-.256q-4.289.01-8.577,0c-1.056,0-2.112,0-3.168-.008a.316.316,0,0,0-.366.259c-.151.5-.318,1-.492,1.49a.684.684,0,0,1-.753.455.633.633,0,0,1-.507-.545.782.782,0,0,1,.055-.378c.115-.351.227-.7.354-1.048.06-.163.045-.225-.15-.231-.633-.018-.771-.154-.9-.788-.236-1.2-.483-2.4-.716-3.609-.031-.161-.128-.218-.252-.288a2.467,2.467,0,0,1,.334-4.534.577.577,0,0,0,.428-.433c.252-.793.519-1.581.784-2.369a2.469,2.469,0,0,1,2.469-1.771q2.808,0,5.615,0Zm5.914,7.366c0-.191,0-.309,0-.426a2.325,2.325,0,0,1,.033-.614,2.59,2.59,0,0,1,1.421-1.7c.138-.061.174-.119.122-.269-.264-.762-.511-1.529-.774-2.291a1.079,1.079,0,0,0-1.076-.766q-5.667,0-11.334,0a1.1,1.1,0,0,0-1.076.769c-.267.779-.518,1.563-.785,2.342-.05.146-.015.209.121.274a2.423,2.423,0,0,1,1.152,1.134.689.689,0,0,0,.134.185.729.729,0,0,1,.226.58c-.007.243,0,.487,0,.76.07-.038.1-.051.127-.07a3.852,3.852,0,0,1,2.373-.71c2.164.009,4.328.016,6.491,0A4.176,4.176,0,0,1,60.946,201.242ZM55,206.317h0q3.566,0,7.132,0c.185,0,.273-.046.309-.239.15-.809.314-1.616.475-2.423.056-.28.18-.565-.084-.812-.016-.015-.018-.048-.024-.072a.674.674,0,0,1,.659-.863,1.16,1.16,0,1,0-.17-2.308,1.133,1.133,0,0,0-1,1.128c-.008,1.064,0,2.129,0,3.193a.715.715,0,0,1-.814.82l-4.893,0H48.583c-.58,0-.806-.249-.822-.835a27.392,27.392,0,0,0-.09-3.2,1.186,1.186,0,0,0-1.81-.919,1.169,1.169,0,0,0-.486,1.261,1.113,1.113,0,0,0,1.088.862.68.68,0,0,1,.6,1.091.278.278,0,0,0-.037.264c.188.924.379,1.848.552,2.775.041.221.127.288.349.287C50.282,206.314,52.642,206.317,55,206.317Zm0-2.905v0c1.863,0,3.725,0,5.588,0,.241,0,.253-.067.164-.258a2.157,2.157,0,0,0-2-1.381c-2.489-.031-4.979-.024-7.468,0a2.158,2.158,0,0,0-2,1.345c-.134.277-.119.292.185.292Z" transform="translate(0)" fill="#999b96"/>
    </g>
  </g>
</svg>
