<svg xmlns="http://www.w3.org/2000/svg" width="31" height="31" viewBox="0 0 31 31">
  <g id="feature2" transform="translate(-660 -1662)">
    <circle id="Ellipse_1142" data-name="Ellipse 1142" cx="15.5" cy="15.5" r="15.5" transform="translate(660 1662)" fill="#f2f6ed"/>
    <g id="Group_32074" data-name="Group 32074" transform="translate(590.123 1622.118)">
      <path id="Path_32812" data-name="Path 32812" d="M94.006,56.086a2.257,2.257,0,1,0-4.51,0c.014,1.441,0,2.881,0,4.322a3.315,3.315,0,0,1-.712,2.175,3.353,3.353,0,0,1-5.864-1.134,3.368,3.368,0,0,1-.136-1.016c0-.811,0-1.622,0-2.432,0-.127-.039-.173-.162-.186a3.471,3.471,0,0,1-3.059-3.528c.006-.929,0-1.859,0-2.788,0-.148-.04-.194-.187-.188s-.354.069-.453-.026-.03-.306-.036-.465.005-.325,0-.486c-.007-.118.04-.149.151-.148.443,0,.886,0,1.328,0,.142,0,.178-.041.177-.179-.007-.649,0-1.3-.006-1.946,0-.137.031-.186.175-.179a6.36,6.36,0,0,0,.729,0c.175-.011.233.032.229.22-.013.623,0,1.247-.008,1.871,0,.156.029.216.2.215.992-.009,1.983-.007,2.975,0,.147,0,.188-.04.186-.187-.008-.636,0-1.272-.008-1.908,0-.18.056-.217.219-.209.255.013.512.009.767,0,.117,0,.147.033.146.147-.005.649.005,1.3-.007,1.946,0,.181.059.214.22.211.418-.01.836,0,1.253-.007.152,0,.19.048.184.191-.011.261-.01.524,0,.786,0,.128-.042.164-.16.156s-.238.006-.355,0c-.136-.011-.165.046-.165.172q.007,1.4,0,2.807a3.466,3.466,0,0,1-2.835,3.5c-.121.026-.287-.019-.356.073s-.024.265-.024.4c0,.742-.006,1.485,0,2.227a2.233,2.233,0,0,0,1.91,2.244,2.209,2.209,0,0,0,2.535-2.046c.031-1.527.011-3.056.015-4.584a3.379,3.379,0,0,1,6.619-1.05,4.1,4.1,0,0,1,.139,1.09m-11.774-4.83c-.829,0-1.658,0-2.487,0-.12,0-.178.022-.177.162.006.96-.006,1.92.006,2.88a2.351,2.351,0,0,0,1.624,2.255,3.95,3.95,0,0,0,1.278.113,2.341,2.341,0,0,0,2.4-2.4c0-.941,0-1.883,0-2.824,0-.163-.052-.193-.2-.192C84.991,51.316,84.175,51.312,83.358,51.312Z" transform="translate(0 0)" fill="#999b96" stroke="#999b96" stroke-width="0.2"/>
      <path id="Path_32813" data-name="Path 32813" d="M148.488,136.639c.335,0,.634,0,.932,0,.123,0,.14.028.076.133q-.829,1.342-1.652,2.689c-.054.089-.1.105-.187.047q-.361-.233-.732-.45c-.087-.051-.106-.09-.046-.184.2-.308.387-.624.577-.938.027-.045.092-.09.055-.145s-.1-.022-.157-.023c-.205,0-.411,0-.617,0-.092,0-.129-.016-.075-.115q.546-1.009,1.085-2.023c.04-.074.075-.079.144-.041.261.144.524.287.789.424.089.046.1.091.049.174C148.649,136.322,148.579,136.466,148.488,136.639Z" transform="translate(-64.591 -83.579)" fill="#999b96" stroke="#999b96" stroke-width="0.2"/>
    </g>
  </g>
</svg>
