<svg xmlns="http://www.w3.org/2000/svg" width="31" height="31" viewBox="0 0 31 31">
  <g id="financial-status" transform="translate(-345 -1662)">
    <circle id="Ellipse_1140" data-name="Ellipse 1140" cx="15.5" cy="15.5" r="15.5" transform="translate(345 1662)" fill="#f2f6ed"/>
    <g id="Group_32470" data-name="Group 32470" transform="translate(20 1449.795)">
      <path id="Path_33004" data-name="Path 33004" d="M347.57,225.69c-.191,3.372-.973,6.564-3.773,8.73-3.1,2.4-3.941,2.372-7.045-.023-2.592-2-3.439-4.952-3.722-8.091-.017-.193-.018-.388-.022-.582-.033-1.418-.031-1.414,1.269-1.942a2.792,2.792,0,0,0,1.795-2.136,1.1,1.1,0,0,1,1.215-1.051,6.983,6.983,0,0,0,1.434-.231c1.741-.428,3.416.118,5.115.316.363.043.516.3.582.65a3.054,3.054,0,0,0,2.549,2.642.681.681,0,0,1,.6.771C347.565,225.059,347.57,225.375,347.57,225.69Zm-1.178.263a.831.831,0,0,0-.555-.955,4.1,4.1,0,0,1-2.332-2.463,1.1,1.1,0,0,0-.9-.728,10.746,10.746,0,0,0-4.683.016,1.029,1.029,0,0,0-.839.7,4.105,4.105,0,0,1-2.325,2.47.851.851,0,0,0-.574.978c.088.7.128,1.406.275,2.091a8.478,8.478,0,0,0,5.224,6.609,1.5,1.5,0,0,0,1.192.008,7.89,7.89,0,0,0,3.418-2.511A11.126,11.126,0,0,0,346.392,225.953Z" fill="#999b96"/>
      <path id="Path_33005" data-name="Path 33005" d="M369.645,249.73c-.432.067-.5-.2-.461-.527.056-.469-.151-.665-.607-.681a2.24,2.24,0,0,1-.564-.128.87.87,0,0,1-.441-1.434c.17-.225.3-.057.434,0a3.328,3.328,0,0,0,1.7.28.826.826,0,0,0,.789-.643.75.75,0,0,0-.439-.842c-.446-.241-.921-.429-1.378-.65a2.025,2.025,0,0,1-1.327-1.985,1.975,1.975,0,0,1,1.422-1.913c.438-.147.479-.415.443-.769-.038-.373.1-.519.488-.512.353.007.574.085.511.485-.1.653.414.563.78.678s.909.028.746.767c-.134.605-.3.845-.927.546a1.832,1.832,0,0,0-1.144-.109c-.321.065-.606.194-.669.571a.668.668,0,0,0,.377.724c.4.223.819.418,1.239.6a2.144,2.144,0,0,1,1.514,2.087,2.076,2.076,0,0,1-1.551,2.121c-.459.148-.423.468-.4.8C370.218,249.611,370.058,249.794,369.645,249.73Z" transform="translate(-29.341 -16.842)" fill="#999b96"/>
    </g>
  </g>
</svg>
