<svg xmlns="http://www.w3.org/2000/svg" width="19.5" height="16.5" viewBox="0 0 19.5 16.5">
  <g id="Group_32427" data-name="Group 32427" transform="translate(-2.25 -4.25)">
    <path id="Path_32820" data-name="Path 32820" d="M8,16a3,3,0,0,1-3,3" fill="none" stroke="#90c14f" stroke-linecap="round" stroke-linejoin="round" stroke-width="1.5"/>
    <path id="Path_32821" data-name="Path 32821" d="M16,16a3,3,0,0,0,3,3" fill="none" stroke="#90c14f" stroke-linecap="round" stroke-linejoin="round" stroke-width="1.5"/>
    <path id="Path_32822" data-name="Path 32822" d="M12,16v4" fill="none" stroke="#90c14f" stroke-linecap="round" stroke-linejoin="round" stroke-width="1.5"/>
    <path id="Path_32823" data-name="Path 32823" d="M3,5,3,7A2,2,0,0,1,5,5H19a2,2,0,0,1,2,2v4a2,2,0,0,1-2,2H5a2,2,0,0,1-2-2Z" fill="none" stroke="#90c14f" stroke-linecap="round" stroke-linejoin="round" stroke-width="1.5"/>
    <path id="Path_32824" data-name="Path 32824" d="M7,13V10A1,1,0,0,1,8,9h8a1,1,0,0,1,1,1v3" fill="none" stroke="#90c14f" stroke-linecap="round" stroke-linejoin="round" stroke-width="1.5"/>
  </g>
</svg>
