<svg xmlns="http://www.w3.org/2000/svg" width="52.38" height="51.009" viewBox="0 0 52.38 51.009">
  <g id="Group_31954" data-name="Group 31954" transform="translate(-145.967 -149.678)">
    <path id="Path_32744" data-name="Path 32744" d="M152.912,166.55c-.632.347-1.157.644-1.69.927a3.037,3.037,0,1,1-2.874-5.341q10.159-5.507,20.325-11a6.771,6.771,0,0,1,6.717-.1c6.48,3.459,12.934,6.968,19.393,10.467.573.31,1.1.7,1.665,1.029a2.925,2.925,0,0,1,.9,3.754,3.034,3.034,0,0,1-3.591,1.509,23.611,23.611,0,0,1-2.314-1.134c-.142.188-.078.382-.078.558-.005,2.845.005,5.69-.012,8.535,0,.441.087.656.567.771,1.185.284,2.358.627,3.522.991.836.261.979.506.978,1.385,0,2.908.03,5.817-.012,8.725a13.424,13.424,0,0,1-9.428,12.456,2.118,2.118,0,0,1-1.345,0,13.253,13.253,0,0,1-8.266-7.388.766.766,0,0,0-.836-.531c-6.681.013-13.362-.039-20.043.037a3.354,3.354,0,0,1-3.605-3.635c.078-7.059.029-14.12.029-21.18Zm27.318,10.07c1.182-.339,2.339-.588,3.434-1a6.3,6.3,0,0,1,5.123,0c.44.206.561.078.558-.4q-.028-4.616,0-9.232a.762.762,0,0,0-.481-.772c-5.219-2.828-10.442-5.652-15.635-8.528a1.87,1.87,0,0,0-2.035-.018q-7.928,4.324-15.883,8.6a.671.671,0,0,0-.383.7q.012,11.446.008,22.891c0,.944.349,1.286,1.3,1.287,2.361,0,4.722-.016,7.082.014.554.007.737-.108.734-.708-.026-5.417-.017-10.834-.015-16.251a3.043,3.043,0,0,1,3.262-3.287q4.837-.006,9.675,0a3.038,3.038,0,0,1,3.25,3.236C180.234,174.285,180.23,175.422,180.23,176.62Zm14.165,7.569c0-1.651-.015-3.021.01-4.39a.555.555,0,0,0-.484-.648c-2.432-.674-4.859-1.365-7.285-2.058a1.027,1.027,0,0,0-.611-.019q-3.723,1.1-7.453,2.163c-.276.079-.374.194-.37.473.045,2.926-.19,5.857.124,8.779.515,4.783,3.2,7.862,7.57,9.619a1.014,1.014,0,0,0,.787.013,11.364,11.364,0,0,0,7.456-8.482A27.536,27.536,0,0,0,194.395,184.189Zm-28.33-2.848q0,4.14,0,8.28c0,.325,0,.541.448.538q4.74-.03,9.48,0c.417,0,.511-.137.431-.518a15.856,15.856,0,0,1-.244-3.27q0-3.729.006-7.458c0-.857.191-1.123.987-1.386a3.313,3.313,0,0,1,.548-.147c.374-.055.51-.231.5-.629-.03-1.158-.008-2.317-.011-3.476,0-1-.334-1.333-1.321-1.333q-4.74,0-9.481,0c-1.018,0-1.338.331-1.339,1.377Q166.063,177.328,166.065,181.341Zm6.1-29.119a5.722,5.722,0,0,0-2.62.721q-6.827,3.7-13.663,7.38c-2.238,1.213-4.507,2.373-6.676,3.709-.639.393-.751.815-.436,1.358a1.019,1.019,0,0,0,1.435.335c.3-.148.593-.319.889-.479q9.771-5.287,19.542-10.576a2.984,2.984,0,0,1,3.012-.012q10.163,5.492,20.322,10.991c.7.378,1.261.288,1.572-.283s.094-1.117-.609-1.5q-10.215-5.527-20.436-11.046A5.26,5.26,0,0,0,172.162,152.222Z" fill="#90c14f" stroke="#90c14f" stroke-width="1"/>
    <path id="Path_32745" data-name="Path 32745" d="M301.69,291.4a1.2,1.2,0,0,1-.4.875c-1.551,1.545-3.09,3.1-4.656,4.633-.871.851-1.2.831-2.053-.014-.7-.695-1.406-1.392-2.1-2.1a1.023,1.023,0,1,1,1.432-1.436c.44.423.887.843,1.287,1.3.306.35.5.366.836.014,1.256-1.3,2.549-2.571,3.828-3.853a1.022,1.022,0,0,1,1.2-.308A.979.979,0,0,1,301.69,291.4Z" transform="translate(-110.331 -106.353)" fill="#90c14f" stroke="#90c14f" stroke-width="1"/>
  </g>
</svg>
