<svg xmlns="http://www.w3.org/2000/svg" width="19.75" height="18.34" viewBox="0 0 19.75 18.34">
  <g id="language" transform="translate(-2.25 -3.375)">
    <path id="Path_32886" data-name="Path 32886" d="M27.8,24.414,23.834,14.8a.97.97,0,0,0-1.793,0l-3.968,9.611a.97.97,0,1,0,1.793.74l.808-1.957H25.2l.808,1.957a.97.97,0,1,0,1.793-.74Zm-6.326-3.157,1.462-3.542L24.4,21.257Z" transform="translate(-5.875 -4.039)" fill="#90c14f"/>
    <path id="Path_32887" data-name="Path 32887" d="M12.647,16.377a.97.97,0,0,0-.216-1.354,12.656,12.656,0,0,1-1.609-1.531,22.741,22.741,0,0,0,3.142-6.326h1.423a.97.97,0,1,0,0-1.94H10.274V4.345a.97.97,0,0,0-1.94,0v.882H3.22a.97.97,0,0,0,0,1.94h8.7a21.033,21.033,0,0,1-2.371,4.777,16.625,16.625,0,0,1-1.9-3.036.97.97,0,0,0-1.789.749,18.507,18.507,0,0,0,2.331,3.7l.121.155a18.028,18.028,0,0,1-4.138,3.559.97.97,0,1,0,.929,1.7A19.01,19.01,0,0,0,9.576,15a13.281,13.281,0,0,0,1.716,1.591.97.97,0,0,0,1.356-.216Z" fill="#90c14f"/>
  </g>
</svg>
