<svg id="Group_31197" data-name="Group 31197" xmlns="http://www.w3.org/2000/svg" width="233.646" height="80" viewBox="0 0 233.646 80">
  <path id="Path_32156" data-name="Path 32156" d="M400.069,493.607q-11.874,0-23.747.014c-.546,0-.7-.126-.669-.671a22.469,22.469,0,0,0,0-2.484c-.023-.476.091-.627.6-.624,3.881.023,7.763-.006,11.644.03.641.006.749-.2.733-.767-.046-1.632.106-3.265-.006-4.9a4.963,4.963,0,0,0-.355-1.649,2.21,2.21,0,0,0-1.846-1.274,35.553,35.553,0,0,0-5.674-.14c-.632,0-1.265-.006-1.9.017-.318.012-.46-.049-.45-.418.028-.98.017-1.962,0-2.943,0-.287.042-.426.385-.427a78.941,78.941,0,0,1,8.363.129,11.144,11.144,0,0,1,1.733.313c2.472.668,3.63,2.2,3.921,5.068a41.557,41.557,0,0,1,.055,6.332c-.025.482.058.655.6.653q7.294-.036,14.588,0c.57,0,.664-.175.661-.7-.023-3.641,0-7.284-.026-10.925-.005-.638.078-.867.816-.85,2.439.056,4.88-.122,7.32-.035a13.04,13.04,0,0,1,4.911.925,4.443,4.443,0,0,1,2.873,4.289c.008,3.552-.079,7.1-.1,10.655,0,.493-.3.372-.559.372q-7.13.005-14.261,0Zm12.868-7.917c0,1.35,0,2.7,0,4.049,0,.27-.036.481.385.476,2.2-.025,4.4-.015,6.6-.005.273,0,.4-.047.364-.357a52.942,52.942,0,0,1,.11-5.734,2.463,2.463,0,0,0-2.337-2.834,22.633,22.633,0,0,0-4.618-.156c-.462.007-.511.193-.505.578C412.951,483.034,412.938,484.362,412.937,485.69Z" transform="translate(-190.963 -451.155)" fill="#040404"/>
  <path id="Path_32157" data-name="Path 32157" d="M108.328,388.372c-1.756,1.38-3.392,2.644-5,3.946a.659.659,0,0,1-1-.013c-1.606-1.3-3.238-2.57-4.962-3.929V452.7l-.144,0c-1.091-23.743-2.182-47.486-3.281-71.395l3.059,2.4c1.848,1.452,3.705,2.893,5.533,4.369.333.269.506.1.721-.074q3.539-2.791,7.073-5.588c.424-.335.858-.659,1.42-1.09l-3.3,71.776-.12,0Z" transform="translate(13.962 -381.312)" fill="#90c14f"/>
  <path id="Path_32158" data-name="Path 32158" d="M288.6,485.565c0,2.507-.011,5.014.01,7.52,0,.446-.1.6-.571.585-1.045-.036-2.093-.037-3.138,0-.463.017-.57-.116-.568-.571.02-3.706-.011-7.412.031-11.117.008-.681-.2-.832-.815-.808a12.02,12.02,0,0,0-2.914.291,2.124,2.124,0,0,0-1.79,2.408c.015,3.117,0,6.234.012,9.351,0,.331-.074.448-.427.441-3.417-.062-6.836.237-10.253-.032a11.078,11.078,0,0,1-4.044-.922,5.73,5.73,0,0,1-3.059-4.3,24.487,24.487,0,0,1-.23-6.766c.023-.359.143-.478.511-.47q1.634.036,3.269,0c.382-.008.514.067.5.493a33.543,33.543,0,0,0-.032,3.98,12.078,12.078,0,0,0,.177,1.424c.336,1.607,1.378,2.474,3.3,2.753a36.868,36.868,0,0,0,5.677.131c.312,0,.352-.155.351-.408-.006-1.875.061-3.752-.019-5.623-.134-3.1,1.147-4.977,4.143-5.862a17.531,17.531,0,0,1,4.836-.663c1.5-.014,3.008.042,4.51.022.454-.006.539.158.537.559-.013,2.528-.007,5.057-.007,7.586Z" transform="translate(-107.365 -451.207)" fill="#040404"/>
  <path id="Path_32159" data-name="Path 32159" d="M-290.924,492.325c.664-1.634,1.286-3.153,1.9-4.676.991-2.459,1.985-4.916,2.955-7.383a.707.707,0,0,1,.791-.548c1.613.034,3.227.024,4.84.006.359,0,.479.082.478.463q-.019,7.392,0,14.783c0,.374-.11.484-.479.473-.85-.025-1.7-.037-2.55,0-.475.022-.569-.143-.567-.586.017-3.881.011-7.762.011-11.643V482.8c-.292.1-.288.351-.36.527q-2.38,5.783-4.734,11.576a.711.711,0,0,1-.8.545,28.159,28.159,0,0,0-2.877,0c-.545.033-.743-.189-.93-.652-1.538-3.8-3.1-7.6-4.661-11.393a1.056,1.056,0,0,0-.376-.621v1.381c0,3.554-.008,7.108.014,10.662,0,.476-.09.652-.6.62a19.465,19.465,0,0,0-2.353,0c-.532.031-.7-.108-.694-.669.034-2.267.014-4.535.014-6.8,0-2.551.015-5.1-.013-7.653-.006-.507.146-.612.623-.6,1.569.03,3.14.026,4.709,0a.7.7,0,0,1,.8.528c1.5,3.776,3.024,7.54,4.544,11.307C-291.16,491.775-291.065,491.991-290.924,492.325Z" transform="translate(301.925 -452.895)" fill="#040404"/>
  <path id="Path_32160" data-name="Path 32160" d="M-139.4,487.34c0-2.419.013-4.837-.011-7.256,0-.45.1-.571.564-.575,2.611-.026,5.223-.184,7.832.038a13.67,13.67,0,0,1,5.761,1.48,5.418,5.418,0,0,1,2.867,4.678,29.816,29.816,0,0,1,0,3,5.8,5.8,0,0,1-3.819,5.357,18.3,18.3,0,0,1-6.5,1.207c-2.069.1-4.135-.039-6.2-.036-.41,0-.506-.114-.5-.51C-139.393,492.264-139.4,489.8-139.4,487.34Zm6.294-4.414c-.76,0-1.52.01-2.279-.006-.271-.006-.378.055-.377.354q.016,4.082,0,8.164c0,.267.069.4.356.4a25.343,25.343,0,0,0,5.916-.294,4.191,4.191,0,0,0,2.929-1.879,4.679,4.679,0,0,0,.457-2.456c-.013-2.2-.776-3.272-2.872-3.9A13.955,13.955,0,0,0-133.108,482.926Z" transform="translate(183.708 -452.686)" fill="#040404"/>
  <path id="Path_32161" data-name="Path 32161" d="M-196.694,495.443c-1.221,0-2.354-.014-3.486.009-.332.007-.446-.162-.565-.413-.439-.921-.9-1.831-1.333-2.756a.693.693,0,0,0-.733-.469q-3.824.032-7.649,0a.722.722,0,0,0-.773.513c-.406.911-.87,1.8-1.285,2.7a.636.636,0,0,1-.7.423c-.936-.03-1.875-.04-2.81,0-.553.023-.555-.127-.336-.56,1.423-2.809,2.826-5.628,4.237-8.442,1.041-2.078,2.1-4.149,3.117-6.236a.727.727,0,0,1,.789-.481c1.067.03,2.136.018,3.2,0a.607.607,0,0,1,.661.37q3.746,7.486,7.522,14.957C-196.789,495.159-196.762,495.263-196.694,495.443Zm-12.748-6.759c1.807,0,3.5-.007,5.2.005.423,0,.339-.177.215-.427-.414-.834-.822-1.671-1.232-2.508l-1.391-2.844Z" transform="translate(239.785 -452.908)" fill="#040404"/>
  <path id="Path_32162" data-name="Path 32162" d="M-59.272,495.411c-1.215,0-2.305-.022-3.394.012a.682.682,0,0,1-.727-.483c-.435-.923-.913-1.826-1.347-2.75a.6.6,0,0,0-.637-.408q-3.89.023-7.781,0a.607.607,0,0,0-.643.409c-.439.945-.906,1.877-1.355,2.818-.119.25-.242.418-.575.411-1.132-.024-2.264-.009-3.4-.009-.062-.263.107-.433.2-.617q3.649-7.314,7.3-14.627a.688.688,0,0,1,.732-.469,29.152,29.152,0,0,0,2.941-.008,1.076,1.076,0,0,1,1.174.742c1.639,3.308,3.3,6.605,4.958,9.905C-60.987,492-60.15,493.664-59.272,495.411Zm-12.773-6.794h5.58l-2.808-5.744Z" transform="translate(139.865 -452.871)" fill="#040404"/>
  <path id="Path_32163" data-name="Path 32163" d="M120.379,438.544c.541.416.962.721,1.36,1.053a.452.452,0,0,0,.682-.008c.392-.334.813-.634,1.349-1.045-.56,21.563-1.116,42.981-1.672,64.4l-.05,0C121.493,481.531,120.938,460.119,120.379,438.544Z" transform="translate(-5.272 -422.944)" fill="#90c14f"/>
  <path id="Path_32164" data-name="Path 32164" d="M170.357,471.864V443.476q0-14.457,0-28.913a3.427,3.427,0,0,1,2.751-3.483c.476-.089.663-.028.628.517-.129,2.021-.213,4.045-.324,6.068-.1,1.892-.227,3.782-.333,5.674q-.387,6.914-.765,13.828c-.149,2.718-.286,5.437-.434,8.156q-.451,8.318-.908,16.635c-.183,3.3-.38,6.607-.571,9.91Z" transform="translate(-41.628 -402.941)" fill="#90c14f"/>
  <path id="Path_32165" data-name="Path 32165" d="M73.755,471c-.081-1.277-.173-2.552-.242-3.83q-.356-6.558-.7-13.115-.4-7.406-.8-14.811-.392-7.21-.787-14.419c-.242-4.349-.5-8.7-.74-13.046-.05-.892.006-.921.9-.677a3.377,3.377,0,0,1,2.456,3.053c.021.282.016.567.016.85q0,24.336.007,48.672,0,3.66,0,7.32Z" transform="translate(31.035 -402.887)" fill="#90c14f"/>
  <path id="Path_32166" data-name="Path 32166" d="M421.787,566.866c-.486-1.251-.931-2.424-1.4-3.586-.112-.277-.1-.41.189-.556a8.751,8.751,0,0,1,8.33-.114c.423.216.51.405.3.839-.467.979-.871,1.989-1.325,2.974-.155.335-.143.458.271.449.981-.021,1.963-.035,2.943.007.448.019.477-.163.474-.522-.013-2.289.007-4.579-.018-6.868,0-.452.108-.582.566-.577s.625.082.618.6c-.033,2.616-.025,5.232-.006,7.849,0,.449-.053.633-.583.632q-20.015-.027-40.029,0c-.45,0-.586-.1-.583-.569q.025-3.989-.021-7.979c-.005-.453.144-.547.548-.521.352.023.647-.059.637.509-.037,2.289,0,4.578-.025,6.867,0,.434.07.584.556.583q8.143-.032,16.286,0c.563,0,.775-.081.721-.721a3.76,3.76,0,0,1,1.146-3.449,5.03,5.03,0,0,1,3.058-.972c1-.064,2-.006,3.006-.013.393,0,.5.165.5.558-.026,1.373,0,2.747-.016,4.12,0,.361.084.484.464.475C419.5,566.849,420.6,566.866,421.787,566.866Zm-7.688,0c.763,0,1.526-.011,2.288.005.287.006.428-.033.421-.378-.023-1.089-.012-2.179,0-3.269,0-.219,0-.364-.3-.356-.979.026-1.966-.045-2.937.047a2.254,2.254,0,0,0-2.266,2.254c-.039.41,0,.827-.011,1.241-.014.382.168.473.52.463C412.573,566.851,413.336,566.866,414.1,566.867Zm10.621,0a10.631,10.631,0,0,1,1.176.009.75.75,0,0,0,.888-.541c.326-.782.691-1.549,1.082-2.3.2-.377.153-.537-.255-.707a6.647,6.647,0,0,0-4.961-.21c-1.055.376-1.061.359-.663,1.362.1.242.194.484.289.727C422.929,566.865,422.929,566.865,424.719,566.866Z" transform="translate(-202.503 -510.503)" fill="#040404"/>
  <path id="Path_32167" data-name="Path 32167" d="M50.075,478.5q-.253-3.936-.506-7.873-.375-5.834-.748-11.668c-.2-3.086-.382-6.173-.581-9.258-.286-4.454-.586-8.907-.867-13.361-.21-3.326-.39-6.654-.605-9.98-.028-.43.114-.463.478-.416a3.427,3.427,0,0,1,2.907,3.431c.008.2,0,.392,0,.589v48.528Z" transform="translate(48.278 -413.768)" fill="#90c14f"/>
  <path id="Path_32168" data-name="Path 32168" d="M194.15,477.8v-1.3q0-23.376-.019-46.753a3.5,3.5,0,0,1,2.191-3.569,4.067,4.067,0,0,1,.76-.167c.369-.069.443.117.421.448q-.384,5.9-.753,11.8-.567,8.865-1.14,17.729-.514,8.016-1.025,16.034c-.122,1.929-.231,3.858-.346,5.787Z" transform="translate(-58.922 -413.813)" fill="#90c14f"/>
  <path id="Path_32169" data-name="Path 32169" d="M276.087,573.92c-4.556,0-9.111-.007-13.667.011-.482,0-.657-.1-.668-.62a11.693,11.693,0,0,1,.142-2.729,3.27,3.27,0,0,1,2.927-2.812,16.377,16.377,0,0,1,3.064-.117c.168,0,.429.174.462-.231.048-.588.528-.233.806-.295.343-.076.3.22.3.429,0,1.569.015,3.139-.008,4.708-.006.418.1.551.537.549q9.384-.019,18.768,0c.406,0,.515-.119.51-.517-.016-1.373.028-2.746,0-4.118-.009-.445.167-.5.532-.486.341.015.618-.036.608.488-.034,1.722-.037,3.444,0,5.166.012.542-.207.579-.646.578C285.2,573.915,280.643,573.92,276.087,573.92Zm-10.481-1.114c.783,0,1.566-.007,2.348,0,.25,0,.394-.016.389-.337-.02-1.109-.014-2.218,0-3.326,0-.252-.07-.339-.328-.334-.956.018-1.918-.048-2.867.036a2.3,2.3,0,0,0-2.326,2.581c0,.3.024.609.01.913-.017.363.118.489.494.474C264.083,572.786,264.845,572.807,265.606,572.806Z" transform="translate(-108.1 -516.443)" fill="#040404"/>
  <path id="Path_32170" data-name="Path 32170" d="M-236.281,572.671a4.041,4.041,0,0,1-2.664-.915,2.851,2.851,0,0,1-.1-4.485,4.39,4.39,0,0,1,5.487-.1,2.848,2.848,0,0,1,.006,4.608A4.073,4.073,0,0,1-236.281,572.671Zm.03-.6a2.873,2.873,0,0,0,3.094-2.456,2.881,2.881,0,0,0-3.19-2.771,2.936,2.936,0,0,0-2.978,2.475A2.833,2.833,0,0,0-236.251,572.076Z" transform="translate(256.943 -515.845)" fill="#040404"/>
  <path id="Path_32171" data-name="Path 32171" d="M-267.573,570.341l2.319,2.472a1.04,1.04,0,0,1-1.216-.322c-.574-.654-1.209-1.255-1.783-1.91a.976.976,0,0,0-.8-.326c-.331-.012-.462.074-.444.431.031.609,0,1.221.017,1.831.01.295-.1.379-.378.371-.241-.007-.349-.075-.348-.34q.011-2.78-.006-5.56c0-.314.139-.352.4-.348.807.013,1.613,0,2.42.017a2.481,2.481,0,0,1,.579.088,1.822,1.822,0,0,1,1.57,1.742,1.927,1.927,0,0,1-1.713,1.7C-267.143,570.226-267.349,570.158-267.573,570.341Zm-.544-.644a2.665,2.665,0,0,0,1.538-.288,1.078,1.078,0,0,0-.032-1.942,2.813,2.813,0,0,0-1.511-.279c-1.359.013-1.36.006-1.36,1.375C-269.481,569.7-269.481,569.7-268.116,569.7Z" transform="translate(278.854 -516.125)" fill="#040404"/>
  <path id="Path_32172" data-name="Path 32172" d="M-133.411,570.232l2.436,2.581a1,1,0,0,1-1.216-.324c-.57-.656-1.2-1.264-1.788-1.9a.8.8,0,0,0-.532-.321c-.5-.053-.771.032-.7.638.062.537,0,1.088.017,1.632.011.312-.143.361-.4.358-.235,0-.353-.065-.351-.335q.012-2.809,0-5.618c0-.241.11-.293.314-.29.936.015,1.872.01,2.807.045a2.165,2.165,0,0,1,1.09.4,1.572,1.572,0,0,1,.043,2.677A2.712,2.712,0,0,1-133.411,570.232Zm-1.788-1.8c0,.327,0,.654,0,.98,0,.12-.04.3.153.292.9-.063,1.834.2,2.694-.263a1.09,1.09,0,0,0,.633-.992,1.106,1.106,0,0,0-.644-.983,2.955,2.955,0,0,0-1.586-.265C-135.2,567.2-135.2,567.2-135.2,568.429Z" transform="translate(181.187 -516.134)" fill="#040404"/>
  <path id="Path_32173" data-name="Path 32173" d="M-24.206,572.683a4.055,4.055,0,0,1-2.427-.617c-.141-.088-.47-.1-.282-.455.173-.32.337-.216.566-.08a4.179,4.179,0,0,0,3.014.508,1.759,1.759,0,0,0,.828-.358A.883.883,0,0,0-22.7,570.1a8.017,8.017,0,0,0-1.838-.423,5.938,5.938,0,0,1-1.441-.393,1.405,1.405,0,0,1-.21-2.489,4.083,4.083,0,0,1,4.372.249.276.276,0,0,1,.067.429c-.153.248-.281.165-.462.038a3.516,3.516,0,0,0-2.727-.594,1.7,1.7,0,0,0-.663.257.949.949,0,0,0-.49.866.842.842,0,0,0,.638.743,16.24,16.24,0,0,0,2.223.491,6.417,6.417,0,0,1,.757.192,1.426,1.426,0,0,1,1.11,1.295,1.539,1.539,0,0,1-.938,1.57A3.867,3.867,0,0,1-24.206,572.683Z" transform="translate(101.915 -515.863)" fill="#040404"/>
  <path id="Path_32174" data-name="Path 32174" d="M-165.873,569.71c0-.893.013-1.786-.007-2.679-.007-.307.069-.41.393-.405,1.154.019,2.308.01,3.463.006.208,0,.371-.014.371.29s-.18.282-.379.282c-.871,0-1.743.014-2.613-.008-.372-.009-.532.064-.54.492-.035,1.782-.052,1.782,1.726,1.782.349,0,.7-.025,1.044.009.214.021.578-.191.6.263s-.353.284-.567.289c-.783.02-1.568.022-2.352,0-.334-.009-.462.086-.442.435.034.586-.186,1.335.1,1.713.262.345,1.06.084,1.621.1.479.015.958.008,1.437,0,.21,0,.378-.009.364.292-.011.23-.1.3-.311.3-1.2,0-2.4-.01-3.594,0-.347,0-.313-.205-.313-.426Q-165.872,571.082-165.873,569.71Z" transform="translate(202.962 -516.116)" fill="#040404"/>
  <path id="Path_32175" data-name="Path 32175" d="M-54.905,569.721c0-.892.02-1.785-.009-2.677-.011-.357.105-.435.437-.429,1.11.018,2.22,0,3.33.011.188,0,.451-.116.458.267.008.43-.292.291-.5.294-.827.011-1.655.022-2.481,0-.382-.012-.522.077-.53.5-.034,1.778-.05,1.777,1.721,1.778.413,0,.827,0,1.24,0,.2,0,.387-.029.389.284s-.183.285-.382.285c-.827,0-1.655.016-2.481-.006-.354-.009-.515.072-.48.46.053.578-.235,1.35.114,1.686.3.289,1.07.094,1.632.1.457.008.914,0,1.371,0,.193,0,.384-.045.384.275,0,.339-.192.32-.422.319-1.132,0-2.264-.012-3.4,0-.313,0-.413-.09-.407-.406C-54.894,571.55-54.906,570.635-54.905,569.721Z" transform="translate(122.242 -516.104)" fill="#040404"/>
  <path id="Path_32176" data-name="Path 32176" d="M374.546,571.779a10.287,10.287,0,0,1-.455,4.431,2.921,2.921,0,0,1-2.57,1.914c-.25.028-.533.037-.451-.333.061-.279-.293-.727.3-.816a2.062,2.062,0,0,0,1.983-1.892,17.455,17.455,0,0,0,.1-3.9,9.342,9.342,0,0,0-.048-1.17c-.083-.6.165-.747.727-.707.355.025.433.134.423.458C374.532,570.435,374.546,571.107,374.546,571.779Z" transform="translate(-187.596 -518.06)" fill="#040404"/>
  <path id="Path_32177" data-name="Path 32177" d="M-197.574,569.748c0-.894.011-1.788-.006-2.681-.006-.315.043-.466.416-.45.783.034,1.569.013,2.354.018a2.548,2.548,0,0,1,1.011.227,1.718,1.718,0,0,1,1.155,1.654,1.787,1.787,0,0,1-1.238,1.6,6.045,6.045,0,0,1-2.394.18c-.473-.009-.669.083-.609.6a7.763,7.763,0,0,1,0,1.372c-.014.23.191.593-.327.607s-.355-.332-.358-.576C-197.582,571.449-197.574,570.6-197.574,569.748Zm.7-1.268c0,.326,0,.651,0,.977,0,.148-.03.343.2.331a6.34,6.34,0,0,0,2.565-.244,1.156,1.156,0,0,0,.732-1.062,1.149,1.149,0,0,0-.724-1.067,3.108,3.108,0,0,0-1.458-.242C-196.875,567.177-196.875,567.173-196.875,568.48Z" transform="translate(226.027 -516.108)" fill="#040404"/>
  <path id="Path_32178" data-name="Path 32178" d="M-301.89,569.716c0-.892.012-1.784-.007-2.675-.007-.31.08-.419.4-.409.826.025,1.653.014,2.479.023a2.364,2.364,0,0,1,1.228.38,1.655,1.655,0,0,1-.05,2.929,4.657,4.657,0,0,1-2.479.359c-.85.007-.849,0-.849.837,0,.457-.01.914,0,1.37.006.243-.064.353-.329.351s-.4-.055-.4-.359c.014-.935.005-1.87.005-2.806Zm.721-1.279c0,.348,0,.7,0,1.045,0,.146-.042.331.2.319a7.219,7.219,0,0,0,2.455-.194,1.2,1.2,0,0,0,.845-1.13,1.206,1.206,0,0,0-.865-1.117,3.377,3.377,0,0,0-1.348-.178C-301.168,567.189-301.168,567.184-301.169,568.436Z" transform="translate(301.905 -516.119)" fill="#040404"/>
  <path id="Path_32179" data-name="Path 32179" d="M550.894,563.4c0-1.329.023-2.659-.013-3.987-.012-.448.167-.5.527-.474.311.026.621-.1.616.462-.026,2.745-.013,5.49.016,8.234,0,.463-.269.365-.5.352-.276-.014-.667.188-.653-.406C550.917,566.191,550.894,564.8,550.894,563.4Z" transform="translate(-318.433 -510.52)" fill="#040404"/>
  <path id="Path_32180" data-name="Path 32180" d="M-104.284,570.031c0-.762-.026-1.524.011-2.284.022-.449-.145-.559-.558-.533-.52.032-1.044,0-1.566.012-.224,0-.369-.02-.36-.308.008-.259.147-.264.335-.264q2.48,0,4.96,0c.178,0,.338-.019.347.251s-.114.323-.35.318c-.544-.011-1.089.026-1.631-.011-.424-.029-.505.139-.5.523.019,1.544.01,3.089.005,4.633,0,.237.109.53-.341.534s-.35-.282-.352-.524C-104.288,571.6-104.284,570.814-104.284,570.031Z" transform="translate(159.953 -516.136)" fill="#040404"/>
  <path id="Path_32181" data-name="Path 32181" d="M-73.128,569.7c0-.894.006-1.787,0-2.681,0-.247.005-.4.332-.4s.4.114.4.42q-.019,2.714,0,5.428c0,.315-.1.412-.414.412-.348,0-.313-.208-.313-.431,0-.916,0-1.831,0-2.747Z" transform="translate(135.494 -516.109)" fill="#040404"/>
  <path id="Path_32182" data-name="Path 32182" d="M471.822,561.154c-.451.019-.664-.189-.656-.625a.542.542,0,0,1,.612-.6.562.562,0,0,1,.647.636C472.418,560.948,472.223,561.182,471.822,561.154Z" transform="translate(-260.445 -511.245)" fill="#040404"/>
  <path id="Path_32183" data-name="Path 32183" d="M283.22,559.7a.606.606,0,0,1-.641.658.588.588,0,0,1-.646-.648.578.578,0,0,1,.6-.624A.6.6,0,0,1,283.22,559.7Z" transform="translate(-122.792 -510.63)" fill="#040404"/>
  <path id="Path_32184" data-name="Path 32184" d="M363.35,597.695a.64.64,0,1,1-.671-.624A.585.585,0,0,1,363.35,597.695Z" transform="translate(-181.086 -538.261)" fill="#040404"/>
  <path id="Path_32185" data-name="Path 32185" d="M355.5,597.724a.642.642,0,1,1-.659-.646A.583.583,0,0,1,355.5,597.724Z" transform="translate(-175.372 -538.267)" fill="#040404"/>
  <path id="Path_32186" data-name="Path 32186" d="M275.35,559.652c0,.47-.225.7-.632.7a.6.6,0,0,1-.654-.647.645.645,0,0,1,1.286-.057Z" transform="translate(-117.067 -510.629)" fill="#040404"/>
  <path id="Path_32187" data-name="Path 32187" d="M479.617,561.15c-.477.009-.68-.236-.664-.641a.558.558,0,0,1,.624-.584.573.573,0,0,1,.662.617C480.239,560.931,480.025,561.193,479.617,561.15Z" transform="translate(-266.11 -511.24)" fill="#040404"/>
</svg>
