<svg id="Group_31197" data-name="Group 31197" xmlns="http://www.w3.org/2000/svg" width="175.234" height="60" viewBox="0 0 175.234 60">
  <path id="Path_32156" data-name="Path 32156" d="M393.964,489.536q-8.905,0-17.81.01c-.41,0-.527-.094-.5-.5a16.854,16.854,0,0,0,0-1.863c-.017-.357.068-.47.449-.468,2.911.017,5.822,0,8.733.023.481,0,.562-.148.55-.575-.034-1.224.079-2.449,0-3.674a3.722,3.722,0,0,0-.266-1.237,1.657,1.657,0,0,0-1.385-.955,26.668,26.668,0,0,0-4.255-.1c-.474,0-.949,0-1.422.013-.239.009-.345-.036-.337-.314.021-.735.013-1.472,0-2.208,0-.215.031-.32.289-.32a59.214,59.214,0,0,1,6.272.1,8.359,8.359,0,0,1,1.3.235c1.854.5,2.723,1.65,2.94,3.8a31.163,31.163,0,0,1,.041,4.749c-.019.362.044.492.45.49q5.47-.027,10.941,0c.427,0,.5-.131.5-.521-.017-2.731,0-5.463-.02-8.194,0-.478.059-.65.612-.638,1.829.042,3.66-.091,5.49-.026a9.781,9.781,0,0,1,3.683.693,3.332,3.332,0,0,1,2.154,3.217c.006,2.664-.06,5.328-.077,7.992,0,.37-.227.279-.419.279q-5.348,0-10.7,0Zm9.651-5.938c0,1.012,0,2.025,0,3.037,0,.2-.027.361.289.357,1.649-.019,3.3-.011,4.947,0,.2,0,.3-.035.273-.268a39.719,39.719,0,0,1,.083-4.3,1.847,1.847,0,0,0-1.752-2.126,16.973,16.973,0,0,0-3.464-.117c-.347.005-.383.145-.379.434C403.625,481.606,403.616,482.6,403.615,483.6Z" transform="translate(-237.135 -457.697)" fill="#040404"/>
  <path id="Path_32157" data-name="Path 32157" d="M104.73,386.607c-1.317,1.035-2.544,1.983-3.749,2.959a.494.494,0,0,1-.753-.01c-1.2-.976-2.429-1.927-3.721-2.947v48.247l-.108,0c-.819-17.807-1.637-35.615-2.461-53.546l2.294,1.8c1.386,1.089,2.779,2.169,4.15,3.276.25.2.379.072.541-.056q2.654-2.093,5.3-4.191c.318-.251.643-.494,1.065-.818l-2.473,53.832-.09,0Z" transform="translate(-13.013 -381.312)" fill="#90c14f"/>
  <path id="Path_32158" data-name="Path 32158" d="M281.635,483.522c0,1.88-.008,3.76.007,5.64,0,.335-.075.451-.428.438-.784-.027-1.57-.028-2.354,0-.347.013-.428-.087-.426-.428.015-2.779-.009-5.559.023-8.338.006-.511-.147-.624-.611-.606a9.017,9.017,0,0,0-2.185.219,1.593,1.593,0,0,0-1.343,1.806c.011,2.338,0,4.676.009,7.013,0,.248-.055.336-.321.331-2.563-.047-5.127.178-7.689-.024a8.308,8.308,0,0,1-3.033-.692,4.3,4.3,0,0,1-2.294-3.226,18.366,18.366,0,0,1-.173-5.074c.017-.269.107-.359.383-.353q1.226.027,2.452,0c.286-.006.386.05.375.37a25.159,25.159,0,0,0-.024,2.985,9.058,9.058,0,0,0,.133,1.068,2.547,2.547,0,0,0,2.475,2.065,27.655,27.655,0,0,0,4.258.1c.234,0,.264-.116.263-.306,0-1.406.046-2.814-.014-4.217a3.9,3.9,0,0,1,3.107-4.4,13.149,13.149,0,0,1,3.627-.5c1.128-.01,2.256.031,3.383.016.341,0,.4.118.4.419-.01,1.9-.005,3.793-.005,5.689Z" transform="translate(-145.705 -457.754)" fill="#040404"/>
  <path id="Path_32159" data-name="Path 32159" d="M-293.674,489.173c.5-1.226.964-2.365,1.424-3.507.743-1.844,1.489-3.687,2.216-5.537a.53.53,0,0,1,.593-.411c1.21.026,2.42.018,3.63,0,.269,0,.359.062.358.347q-.014,5.544,0,11.087c0,.281-.082.363-.359.355-.637-.019-1.276-.028-1.913,0-.356.017-.427-.107-.425-.44.013-2.911.008-5.822.008-8.733v-.312c-.219.074-.216.263-.27.4q-1.785,4.337-3.551,8.682a.533.533,0,0,1-.6.409,21.111,21.111,0,0,0-2.158,0c-.409.025-.557-.142-.7-.489-1.153-2.853-2.326-5.7-3.5-8.545a.792.792,0,0,0-.282-.466v1.036c0,2.666-.006,5.331.01,8,0,.357-.068.489-.452.465a14.6,14.6,0,0,0-1.765,0c-.4.023-.527-.081-.52-.5.026-1.7.011-3.4.011-5.1,0-1.913.011-3.827-.01-5.74,0-.38.11-.459.467-.452,1.177.023,2.355.02,3.532,0a.527.527,0,0,1,.6.4c1.122,2.832,2.268,5.655,3.408,8.48C-293.851,488.761-293.78,488.923-293.674,489.173Z" transform="translate(301.925 -459.601)" fill="#040404"/>
  <path id="Path_32160" data-name="Path 32160" d="M-139.4,485.362c0-1.814.009-3.628-.008-5.442,0-.338.074-.428.423-.432,1.958-.02,3.917-.138,5.874.028a10.252,10.252,0,0,1,4.321,1.11,4.063,4.063,0,0,1,2.151,3.509,22.36,22.36,0,0,1,0,2.252,4.349,4.349,0,0,1-2.864,4.018,13.725,13.725,0,0,1-4.876.906c-1.552.072-3.1-.03-4.652-.027-.308,0-.38-.085-.378-.383C-139.4,489.056-139.4,487.209-139.4,485.362Zm4.72-3.31c-.57,0-1.14.008-1.709,0-.2,0-.284.041-.283.266q.012,3.062,0,6.123c0,.2.051.3.267.3a19.009,19.009,0,0,0,4.437-.22,3.143,3.143,0,0,0,2.2-1.409,3.509,3.509,0,0,0,.343-1.842,2.62,2.62,0,0,0-2.154-2.928A10.466,10.466,0,0,0-134.684,482.052Z" transform="translate(172.634 -459.372)" fill="#040404"/>
  <path id="Path_32161" data-name="Path 32161" d="M-201.646,491.516c-.916,0-1.765-.011-2.614.007-.249.005-.334-.122-.424-.31-.329-.691-.676-1.373-1-2.067a.52.52,0,0,0-.55-.352q-2.868.024-5.737,0a.542.542,0,0,0-.58.385c-.3.683-.652,1.347-.964,2.027a.477.477,0,0,1-.524.317c-.7-.023-1.406-.03-2.108,0-.415.018-.416-.1-.252-.42,1.067-2.107,2.12-4.221,3.178-6.332.781-1.558,1.572-3.111,2.337-4.677a.545.545,0,0,1,.592-.361c.8.022,1.6.013,2.4,0a.455.455,0,0,1,.5.277q2.81,5.614,5.641,11.218C-201.717,491.3-201.7,491.38-201.646,491.516Zm-9.561-5.07c1.355,0,2.626-.006,3.9,0,.317,0,.254-.133.161-.32-.311-.625-.617-1.254-.924-1.881l-1.044-2.133Z" transform="translate(233.964 -459.614)" fill="#040404"/>
  <path id="Path_32162" data-name="Path 32162" d="M-64.24,491.479c-.911,0-1.729-.017-2.546.009a.512.512,0,0,1-.545-.362c-.326-.692-.685-1.37-1.01-2.062a.451.451,0,0,0-.478-.306q-2.918.017-5.836,0a.455.455,0,0,0-.482.307c-.329.709-.68,1.408-1.017,2.114-.089.187-.182.313-.431.308-.849-.018-1.7-.007-2.548-.007-.046-.2.081-.324.15-.463q2.737-5.486,5.476-10.97a.516.516,0,0,1,.549-.351,21.859,21.859,0,0,0,2.206-.006.807.807,0,0,1,.88.557c1.23,2.481,2.477,4.954,3.719,7.429C-65.526,488.922-64.9,490.169-64.24,491.479Zm-9.58-5.1h4.185l-2.106-4.308Z" transform="translate(124.684 -459.574)" fill="#040404"/>
  <path id="Path_32163" data-name="Path 32163" d="M120.379,438.544c.406.312.721.54,1.02.789a.339.339,0,0,0,.511-.006c.294-.25.61-.475,1.012-.784-.42,16.172-.837,32.236-1.254,48.3h-.038C121.214,470.784,120.8,454.725,120.379,438.544Z" transform="translate(-34.049 -426.844)" fill="#90c14f"/>
  <path id="Path_32164" data-name="Path 32164" d="M170.357,456.659V435.368q0-10.842,0-21.685a2.57,2.57,0,0,1,2.063-2.612c.357-.067.5-.021.471.388-.1,1.516-.159,3.034-.243,4.551-.078,1.419-.171,2.837-.25,4.256q-.29,5.185-.574,10.371c-.111,2.039-.215,4.078-.325,6.117q-.338,6.238-.681,12.476c-.137,2.478-.285,4.955-.428,7.432Z" transform="translate(-73.81 -404.967)" fill="#90c14f"/>
  <path id="Path_32165" data-name="Path 32165" d="M72.933,455.992c-.061-.957-.129-1.914-.182-2.872q-.267-4.918-.525-9.837-.3-5.554-.6-11.108-.294-5.407-.591-10.814c-.182-3.262-.374-6.523-.555-9.784-.037-.669,0-.691.672-.508a2.533,2.533,0,0,1,1.842,2.289c.016.212.012.425.012.638q0,18.252,0,36.5,0,2.745,0,5.49Z" transform="translate(5.659 -404.908)" fill="#90c14f"/>
  <path id="Path_32166" data-name="Path 32166" d="M414.218,564.877c-.365-.938-.7-1.818-1.052-2.689-.084-.207-.076-.307.142-.417a6.563,6.563,0,0,1,6.247-.086c.317.162.383.3.228.629-.35.734-.653,1.491-.994,2.231-.116.251-.108.343.2.337.736-.016,1.473-.026,2.207.005.336.014.357-.122.356-.392-.01-1.717,0-3.434-.014-5.151,0-.339.081-.436.424-.433s.469.062.464.451c-.025,1.962-.019,3.924,0,5.887,0,.337-.04.474-.437.474q-15.011-.02-30.022,0c-.337,0-.44-.076-.437-.426q.019-2.992-.016-5.984c0-.34.108-.41.411-.391.264.017.485-.044.478.381-.028,1.716,0,3.434-.019,5.151,0,.326.053.438.417.437q6.107-.024,12.215,0c.422,0,.581-.06.541-.541a2.82,2.82,0,0,1,.86-2.587,3.773,3.773,0,0,1,2.293-.729c.749-.048,1.5,0,2.255-.009.295,0,.378.123.373.418-.019,1.03,0,2.06-.012,3.09,0,.27.063.363.348.356C412.5,564.865,413.331,564.877,414.218,564.877Zm-5.766,0c.572,0,1.144-.008,1.716,0,.215,0,.321-.024.316-.284-.017-.817-.009-1.634,0-2.452,0-.164,0-.273-.223-.267-.734.02-1.474-.034-2.2.036a1.691,1.691,0,0,0-1.7,1.69c-.029.308,0,.62-.008.93-.011.286.126.355.39.347C407.308,564.866,407.88,564.878,408.452,564.878Zm7.965,0a7.977,7.977,0,0,1,.882.007.562.562,0,0,0,.666-.405c.244-.586.518-1.162.812-1.725.147-.283.115-.4-.191-.53a4.986,4.986,0,0,0-3.72-.157c-.791.282-.8.269-.5,1.022.072.182.146.363.217.546C415.075,564.877,415.075,564.877,416.417,564.878Z" transform="translate(-249.755 -522.606)" fill="#040404"/>
  <path id="Path_32167" data-name="Path 32167" d="M49.247,465.359q-.19-2.952-.38-5.9-.281-4.375-.561-8.751c-.147-2.315-.287-4.629-.436-6.944-.215-3.341-.44-6.68-.65-10.021-.157-2.494-.293-4.99-.454-7.485-.021-.322.085-.347.358-.312a2.57,2.57,0,0,1,2.18,2.573c.006.147,0,.294,0,.442v36.4Z" transform="translate(24.517 -416.808)" fill="#90c14f"/>
  <path id="Path_32168" data-name="Path 32168" d="M194.146,464.846v-.977q0-17.532-.015-35.065a2.623,2.623,0,0,1,1.643-2.677,3.051,3.051,0,0,1,.57-.125c.277-.052.332.088.316.336q-.288,4.423-.565,8.847-.426,6.649-.855,13.3-.386,6.012-.769,12.025c-.092,1.447-.173,2.893-.259,4.34Z" transform="translate(-92.724 -416.857)" fill="#90c14f"/>
  <path id="Path_32169" data-name="Path 32169" d="M272.5,572.209c-3.417,0-6.834-.005-10.251.008-.361,0-.493-.075-.5-.465a8.77,8.77,0,0,1,.107-2.047,2.452,2.452,0,0,1,2.2-2.109,12.281,12.281,0,0,1,2.3-.088c.126,0,.322.13.347-.173.036-.441.4-.175.6-.221.257-.057.223.165.223.322,0,1.177.011,2.354-.006,3.531,0,.314.074.413.4.412q7.038-.014,14.076,0c.3,0,.386-.089.383-.388-.012-1.029.021-2.06,0-3.089-.007-.333.125-.376.4-.364.256.011.464-.027.456.366-.026,1.291-.028,2.583,0,3.874.009.407-.155.434-.484.433C279.333,572.205,275.916,572.209,272.5,572.209Zm-7.861-.836c.587,0,1.174-.005,1.761,0,.188,0,.3-.012.292-.253-.015-.831-.011-1.663,0-2.495,0-.189-.052-.254-.246-.25-.717.014-1.438-.036-2.15.027a1.724,1.724,0,0,0-1.744,1.936c0,.228.018.457.007.684-.013.272.088.367.37.355C263.5,571.359,264.068,571.375,264.638,571.374Z" transform="translate(-146.509 -529.102)" fill="#040404"/>
  <path id="Path_32170" data-name="Path 32170" d="M-237.233,571.067a3.031,3.031,0,0,1-2-.687,2.138,2.138,0,0,1-.077-3.364,3.292,3.292,0,0,1,4.115-.078,2.136,2.136,0,0,1,0,3.456A3.055,3.055,0,0,1-237.233,571.067Zm.022-.447a2.155,2.155,0,0,0,2.321-1.842,2.161,2.161,0,0,0-2.393-2.078,2.2,2.2,0,0,0-2.234,1.856A2.124,2.124,0,0,0-237.21,570.621Z" transform="translate(252.729 -528.448)" fill="#040404"/>
  <path id="Path_32171" data-name="Path 32171" d="M-268.232,569.416l1.74,1.854a.78.78,0,0,1-.912-.242c-.431-.491-.907-.942-1.337-1.432a.732.732,0,0,0-.6-.244c-.248-.009-.347.056-.333.323.023.457,0,.916.013,1.373.008.221-.077.285-.284.278-.181-.005-.262-.056-.261-.255q.008-2.085,0-4.17c0-.235.1-.264.3-.261.6.01,1.21,0,1.815.013a1.86,1.86,0,0,1,.434.066,1.366,1.366,0,0,1,1.177,1.306,1.446,1.446,0,0,1-1.285,1.277C-267.909,569.33-268.064,569.278-268.232,569.416Zm-.408-.483a2,2,0,0,0,1.154-.216.809.809,0,0,0-.024-1.457,2.11,2.11,0,0,0-1.134-.209c-1.019.01-1.02,0-1.02,1.031C-269.663,568.932-269.663,568.932-268.64,568.933Z" transform="translate(276.693 -528.754)" fill="#040404"/>
  <path id="Path_32172" data-name="Path 32172" d="M-134.045,569.337l1.827,1.936a.752.752,0,0,1-.912-.243c-.428-.492-.9-.948-1.341-1.426a.6.6,0,0,0-.4-.241c-.373-.039-.579.024-.526.478.047.4,0,.816.013,1.224.009.234-.107.271-.3.269s-.265-.049-.264-.251q.009-2.107,0-4.214c0-.181.082-.22.236-.217.7.011,1.4.008,2.105.033a1.624,1.624,0,0,1,.818.3,1.179,1.179,0,0,1,.033,2.008A2.034,2.034,0,0,1-134.045,569.337Zm-1.341-1.352c0,.245,0,.49,0,.735,0,.09-.03.229.114.219a4.563,4.563,0,0,0,2.021-.2.817.817,0,0,0,.475-.744.829.829,0,0,0-.483-.738,2.216,2.216,0,0,0-1.19-.2C-135.385,567.064-135.385,567.062-135.386,567.985Z" transform="translate(169.877 -528.763)" fill="#040404"/>
  <path id="Path_32173" data-name="Path 32173" d="M-24.9,571.082a3.042,3.042,0,0,1-1.82-.462c-.106-.066-.353-.079-.211-.341.129-.24.253-.162.424-.06a3.134,3.134,0,0,0,2.26.381,1.319,1.319,0,0,0,.621-.268.662.662,0,0,0-.144-1.184,6.015,6.015,0,0,0-1.379-.318,4.451,4.451,0,0,1-1.081-.294,1.054,1.054,0,0,1-.158-1.867,3.062,3.062,0,0,1,3.279.186.207.207,0,0,1,.05.322c-.114.186-.211.123-.346.029a2.637,2.637,0,0,0-2.045-.445,1.277,1.277,0,0,0-.5.193.712.712,0,0,0-.367.649.631.631,0,0,0,.478.557,12.175,12.175,0,0,0,1.668.369,4.813,4.813,0,0,1,.568.144,1.07,1.07,0,0,1,.833.971,1.154,1.154,0,0,1-.7,1.177A2.9,2.9,0,0,1-24.9,571.082Z" transform="translate(83.179 -528.467)" fill="#040404"/>
  <path id="Path_32174" data-name="Path 32174" d="M-165.875,568.939c0-.669.01-1.339-.005-2.009-.005-.23.052-.308.295-.3.865.014,1.731.007,2.6,0,.156,0,.278-.01.278.218s-.135.212-.284.211c-.653,0-1.307.011-1.96-.006-.279-.007-.4.048-.405.369-.027,1.336-.039,1.336,1.295,1.336.261,0,.525-.018.783.007.161.016.434-.143.447.2s-.265.213-.425.217c-.588.015-1.176.017-1.764,0-.251-.007-.346.065-.331.326.025.439-.139,1,.075,1.285.2.259.795.063,1.216.075.359.011.719.006,1.078,0,.157,0,.283-.007.273.219-.008.172-.073.227-.233.227-.9,0-1.8-.008-2.7,0-.26,0-.235-.154-.235-.319Q-165.874,569.968-165.875,568.939Z" transform="translate(193.692 -528.743)" fill="#040404"/>
  <path id="Path_32175" data-name="Path 32175" d="M-54.908,568.944c0-.669.015-1.339-.007-2.008-.009-.268.079-.326.328-.322.832.014,1.665,0,2.5.008.141,0,.338-.087.343.2.006.322-.219.219-.372.221-.62.008-1.241.017-1.861,0-.287-.009-.391.058-.4.372-.026,1.333-.037,1.333,1.291,1.333.31,0,.62,0,.93,0,.146,0,.29-.022.292.213s-.137.214-.287.214c-.62,0-1.241.012-1.861,0-.265-.007-.387.054-.36.345.039.434-.176,1.012.085,1.264.225.216.8.071,1.224.078.343.006.686,0,1.028,0,.145,0,.288-.034.288.206s-.144.24-.317.239c-.849,0-1.7-.009-2.547,0-.234,0-.31-.067-.305-.3C-54.9,570.315-54.908,569.629-54.908,568.944Z" transform="translate(105.41 -528.73)" fill="#040404"/>
  <path id="Path_32176" data-name="Path 32176" d="M373.665,571.159a7.716,7.716,0,0,1-.341,3.323,2.191,2.191,0,0,1-1.928,1.436c-.188.021-.4.028-.339-.25.046-.209-.22-.545.222-.612a1.546,1.546,0,0,0,1.487-1.419,13.091,13.091,0,0,0,.076-2.925,7.008,7.008,0,0,0-.036-.878c-.062-.449.124-.56.545-.53.267.019.325.1.317.343C373.654,570.151,373.665,570.655,373.665,571.159Z" transform="translate(-233.452 -530.87)" fill="#040404"/>
  <path id="Path_32177" data-name="Path 32177" d="M-197.578,568.965c0-.67.008-1.341,0-2.011,0-.236.032-.35.312-.338.587.025,1.177.009,1.765.014a1.911,1.911,0,0,1,.758.17,1.289,1.289,0,0,1,.866,1.241,1.341,1.341,0,0,1-.929,1.2,4.534,4.534,0,0,1-1.8.135c-.354-.007-.5.062-.457.448a5.822,5.822,0,0,1,0,1.029c-.011.173.143.445-.245.455s-.266-.249-.269-.432C-197.583,570.241-197.578,569.6-197.578,568.965Zm.524-.951c0,.244,0,.489,0,.733,0,.111-.022.257.147.248a4.755,4.755,0,0,0,1.924-.183.867.867,0,0,0,.549-.8.862.862,0,0,0-.543-.8,2.331,2.331,0,0,0-1.093-.182C-197.053,567.036-197.053,567.033-197.054,568.014Z" transform="translate(218.917 -528.735)" fill="#040404"/>
  <path id="Path_32178" data-name="Path 32178" d="M-301.892,568.945c0-.669.009-1.338,0-2.006,0-.233.06-.314.3-.307.619.019,1.239.01,1.859.017a1.773,1.773,0,0,1,.921.285,1.241,1.241,0,0,1-.037,2.2,3.493,3.493,0,0,1-1.859.27c-.637,0-.637,0-.637.628,0,.343-.008.685,0,1.028,0,.183-.048.265-.247.263s-.3-.041-.3-.269c.011-.7,0-1.4,0-2.1Zm.541-.96c0,.261,0,.523,0,.784,0,.11-.031.249.149.239a5.415,5.415,0,0,0,1.841-.146.9.9,0,0,0,.634-.847.9.9,0,0,0-.649-.838,2.532,2.532,0,0,0-1.011-.133C-301.35,567.049-301.35,567.046-301.351,567.985Z" transform="translate(301.903 -528.747)" fill="#040404"/>
  <path id="Path_32179" data-name="Path 32179" d="M550.891,562.284c0-1,.017-1.994-.01-2.99-.009-.336.125-.378.4-.355.233.019.466-.072.462.346-.019,2.058-.01,4.117.012,6.175,0,.347-.2.274-.378.264-.207-.011-.5.141-.49-.3C550.908,564.376,550.891,563.33,550.891,562.284Z" transform="translate(-376.545 -522.624)" fill="#040404"/>
  <path id="Path_32180" data-name="Path 32180" d="M-104.9,569.187c0-.571-.02-1.143.008-1.713.017-.337-.109-.419-.418-.4-.39.024-.783,0-1.174.009-.168,0-.276-.015-.27-.231.006-.194.11-.2.251-.2q1.86,0,3.72,0c.133,0,.254-.014.26.188s-.085.242-.262.238c-.408-.008-.817.02-1.223-.008-.318-.022-.379.1-.375.392.014,1.158.008,2.317,0,3.475,0,.178.082.4-.256.4s-.262-.212-.264-.393C-104.9,570.362-104.9,569.774-104.9,569.187Z" transform="translate(146.654 -528.766)" fill="#040404"/>
  <path id="Path_32181" data-name="Path 32181" d="M-73.129,568.928c0-.67,0-1.341,0-2.011,0-.186,0-.3.249-.3s.3.086.3.315q-.014,2.035,0,4.071c0,.236-.077.309-.31.309-.261,0-.235-.156-.235-.323,0-.687,0-1.373,0-2.06Z" transform="translate(119.904 -528.736)" fill="#040404"/>
  <path id="Path_32182" data-name="Path 32182" d="M471.658,560.848c-.338.014-.5-.142-.492-.469a.406.406,0,0,1,.459-.448.422.422,0,0,1,.486.477C472.1,560.694,471.958,560.869,471.658,560.848Z" transform="translate(-313.125 -523.417)" fill="#040404"/>
  <path id="Path_32183" data-name="Path 32183" d="M282.9,559.547a.454.454,0,0,1-.48.493.441.441,0,0,1-.484-.486.434.434,0,0,1,.452-.468A.453.453,0,0,1,282.9,559.547Z" transform="translate(-162.578 -522.744)" fill="#040404"/>
  <path id="Path_32184" data-name="Path 32184" d="M363.03,597.538a.48.48,0,1,1-.5-.468A.439.439,0,0,1,363.03,597.538Z" transform="translate(-226.332 -552.963)" fill="#040404"/>
  <path id="Path_32185" data-name="Path 32185" d="M355.177,597.563a.481.481,0,1,1-.495-.484A.437.437,0,0,1,355.177,597.563Z" transform="translate(-220.082 -552.97)" fill="#040404"/>
  <path id="Path_32186" data-name="Path 32186" d="M275.028,559.51c0,.352-.168.527-.474.528a.448.448,0,0,1-.491-.485.484.484,0,0,1,.964-.043Z" transform="translate(-156.316 -522.743)" fill="#040404"/>
  <path id="Path_32187" data-name="Path 32187" d="M479.451,560.843c-.358.007-.51-.177-.5-.481a.419.419,0,0,1,.468-.438.429.429,0,0,1,.5.463C479.917,560.679,479.757,560.876,479.451,560.843Z" transform="translate(-319.321 -523.411)" fill="#040404"/>
</svg>
