<svg xmlns="http://www.w3.org/2000/svg" width="26.4" height="22" viewBox="0 0 26.4 22">
  <g id="logout" transform="translate(-572 -274)">
    <path id="Path_1293" data-name="Path 1293" d="M646.587,296a4.024,4.024,0,0,1-1.611-.939,2.87,2.87,0,0,1-.739-1.933c-.014-1.818-.017-1.436,0-3.253.006-.728.419-1.124,1.04-1.077a.9.9,0,0,1,.851,1.006c.008,1.72,0,1.24,0,2.96,0,1.061.3,1.352,1.387,1.352H659.3c.976,0,1.281-.3,1.281-1.26,0-6.7,0-9.009,0-15.713,0-.96-.3-1.259-1.281-1.26q-5.949,0-11.9,0c-.923,0-1.263.327-1.266,1.234-.006,1.72,0,1.24,0,2.96,0,.734-.315,1.112-.913,1.126s-.975-.373-.981-1.079c-.015-1.818-.027-1.436,0-3.253A2.938,2.938,0,0,1,646.587,274h13.52a3.189,3.189,0,0,1,2.393,2.347v17.307A3.189,3.189,0,0,1,660.106,296Z" transform="translate(-64.099)" fill="#8f8f8f"/>
    <path id="Path_1294" data-name="Path 1294" d="M572,341.625a21,21,0,0,1,1.779-1.856q1.439-1.462,2.9-2.9a.9.9,0,1,1,1.253,1.271c-.789.8-1.589,1.591-2.382,2.387-.126.126-.243.262-.375.405a1.065,1.065,0,0,0,.645.084q6.885.006,13.77,0c.954,0,1.355.254,1.372.864.018.631-.4.91-1.382.91q-6.885,0-13.77,0a.948.948,0,0,0-.652.1c.871.869,1.728,1.724,2.584,2.579.633.633.74,1.167.32,1.587-.439.44-.921.344-1.583-.318q-1.908-1.907-3.813-3.817c-.234-.236-.445-.5-.666-.744Z" transform="translate(0 -56.905)" fill="#8f8f8f"/>
  </g>
</svg>
