<svg xmlns="http://www.w3.org/2000/svg" width="17.546" height="20.22" viewBox="0 0 17.546 20.22">
  <path id="Path_32193" data-name="Path 32193" d="M866.5,141.9a1.969,1.969,0,0,1-1.97,1.967H851.429a1.967,1.967,0,1,1,0-3.934s0-5.3,0-5.3a6.556,6.556,0,0,1,13.112,0v5.3A1.97,1.97,0,0,1,866.5,141.9Zm-1.968-.656a1.31,1.31,0,0,1-1.31-1.312v-5.3a5.245,5.245,0,0,0-10.49,0v5.3a1.312,1.312,0,0,1-1.311,1.312.656.656,0,1,0,0,1.311h13.106a.656.656,0,1,0,0-1.311Zm-9.506,3.606h1.311a1.639,1.639,0,0,0,3.278,0h1.311a2.95,2.95,0,0,1-5.9,0Z" transform="translate(-849.209 -127.832)" stroke="#181818" stroke-miterlimit="10" stroke-width="0.5"/>
</svg>
