<svg xmlns="http://www.w3.org/2000/svg" width="59.565" height="50.508" viewBox="0 0 59.565 50.508">
  <g id="Group_31953" data-name="Group 31953" transform="translate(-65.825 -94.601)">
    <path id="Path_32742" data-name="Path 32742" d="M89.758,144.858q-9.131,0-18.263,0a5.16,5.16,0,0,1-5.243-3.865,6.1,6.1,0,0,1-.177-1.525q0-11.77,0-23.54a5.2,5.2,0,0,1,5.455-5.426c1.917,0,3.834-.01,5.751.006a2.6,2.6,0,0,0,1.3-.314q13.695-7.293,27.4-14.566a5.212,5.212,0,0,1,7.514,2.32q5.406,10.235,10.827,20.463a5.927,5.927,0,0,1,.762,3.755,5.074,5.074,0,0,1-2.959,3.82q-4.058,2.142-8.136,4.249a.822.822,0,0,0-.516.863c.02,2.767.011,5.534.01,8.3a5.165,5.165,0,0,1-5.462,5.459Q98.89,144.866,89.758,144.858Zm-.034-12.536q9.93,0,19.861,0c.383,0,.655.024.653-.532-.022-5.316-.009-10.632-.017-15.948a1.87,1.87,0,0,0-2.1-2.078q-18.349,0-36.7,0a2.72,2.72,0,0,0-.7.069c-.944.254-1.4.964-1.4,2.2,0,5.2.009,10.395-.016,15.592,0,.588.172.71.73.708C76.6,132.316,83.163,132.323,89.724,132.323ZM85.074,110.4a1.632,1.632,0,0,0,.8.1q11.086,0,22.171,0a5.188,5.188,0,0,1,5.435,5.439q0,5.039,0,10.078v.715c.244-.111.422-.183.591-.271q3.308-1.724,6.613-3.453a1.831,1.831,0,0,0,.871-2.759c-.5-.962-1.017-1.918-1.524-2.877q-4.792-9.051-9.584-18.1a1.737,1.737,0,0,0-2.1-1.014,3.685,3.685,0,0,0-.812.349q-7.682,4.027-15.36,8.061Zm4.7,25.089H82.955q-6.523,0-13.046-.007c-.415,0-.606.076-.593.547.032,1.165-.013,2.333.02,3.5a1.888,1.888,0,0,0,2.068,2.007q18.383,0,36.766,0a1.877,1.877,0,0,0,2.051-2.016c.017-1.107-.028-2.215.018-3.32.024-.572-.142-.724-.718-.722C102.939,135.5,96.356,135.488,89.774,135.488Z" fill="#90c14f" stroke="#000" stroke-width="0.5"/>
    <path id="Path_32743" data-name="Path 32743" d="M108.978,240.531c-.83,0-1.662-.032-2.49.006a3.465,3.465,0,0,1-3.723-3.333,24.96,24.96,0,0,1,.012-3.731,3.3,3.3,0,0,1,3.446-3.218,40.3,40.3,0,0,1,5.863.036,3.345,3.345,0,0,1,3.171,3.367c.042,1.164.047,2.333,0,3.5a3.389,3.389,0,0,1-3.429,3.367c-.948.029-1.9.005-2.846.005Zm.056-3.236c.85,0,1.7-.013,2.55.006.38.009.526-.117.516-.51-.022-.928-.02-1.858,0-2.786.008-.379-.112-.527-.506-.523q-2.52.023-5.04,0c-.359,0-.5.13-.494.483.01.949.015,1.9,0,2.846-.008.408.186.5.546.49C107.413,237.283,108.224,237.3,109.034,237.295Z" transform="translate(-30.834 -113.908)" fill="#90c14f" stroke="#000" stroke-width="0.5"/>
  </g>
</svg>
