<svg xmlns="http://www.w3.org/2000/svg" width="45.688" height="40" viewBox="0 0 45.688 40">
  <g id="Group_32354" data-name="Group 32354" transform="translate(-154.533 -147.89)">
    <circle id="Ellipse_1149" data-name="Ellipse 1149" cx="2.902" cy="2.902" r="2.902" transform="translate(175.172 163.996)" fill="#def5c0"/>
    <path id="Path_32921" data-name="Path 32921" d="M166.886,243.225l-4.663,2.73-1.706,2.161-.8,5,1.82,2.73h30.027l3.412-.8,1.592-1.934V240.04l-2.616,1.934-8.53,3.981-2.73,2.161-4.322-2.161L171.89,240.5l-3.867,1.024Z" transform="translate(-3.891 -69.124)" fill="#def5c0"/>
    <path id="Path_32919" data-name="Path 32919" d="M174.091,187.884c-4.925,0-9.851.01-14.777,0-3.065-.008-4.749-1.626-4.76-4.657q-.04-10.965,0-21.931c.013-3.324,1.538-4.884,4.915-5.079.763-.044,1.1-.225,1.141-1.05a27.5,27.5,0,0,1,.441-3.386,4.275,4.275,0,0,1,4.937-3.857c5.309.523,10.607,1.146,15.909,1.736q6.407.713,12.812,1.447c1.552.175,3.107.326,4.27,1.568a4.626,4.626,0,0,1,1.2,3.871q-.875,7.875-1.747,15.75c-.237,2.11-.516,4.215-.748,6.325a4.226,4.226,0,0,1-2.766,3.789,1.247,1.247,0,0,0-.981,1.168c-.324,2.786-2.059,4.288-4.918,4.3C184.045,187.9,179.068,187.883,174.091,187.884Zm-17.063-11.568c2.433-1.76,4.48-3.248,6.534-4.727,2.65-1.906,4.865-1.827,7.3.282,1.726,1.492,3.416,3.026,5.143,4.516,1.519,1.311,2.3,1.373,4.057.354,3.406-1.973,6.787-3.992,10.218-5.921a2,2,0,0,0,1.228-2.056c-.083-2.331-.016-4.667-.029-7-.012-2.283-.812-3.1-3.084-3.1q-14.315-.015-28.63,0c-2.035,0-2.713.654-2.733,2.692-.029,2.9-.008,5.809-.008,8.713C157.027,172.017,157.027,173.969,157.027,176.316Zm34.415-3.188c-.721.389-1.263.663-1.789.967-2.827,1.632-5.645,3.281-8.476,4.906a5.325,5.325,0,0,1-6.735-.622c-1.767-1.525-3.5-3.1-5.262-4.622-1.621-1.4-2.415-1.432-4.122-.2-1.848,1.338-3.588,2.856-5.548,4a4.711,4.711,0,0,0-2.527,5.081c.211,2.295.465,2.731,2.757,2.732q14.322.006,28.644,0a6.5,6.5,0,0,0,1.4-.061c.863-.193,1.625-.673,1.64-1.625C191.475,180.237,191.442,176.784,191.442,173.128Zm2.531,6.824a1.5,1.5,0,0,0,1.155-1.42c.831-7.154,1.682-14.3,2.483-21.462.288-2.58-.284-3.177-2.908-3.448-2.37-.245-4.737-.529-7.1-.8-7.207-.827-14.413-1.669-21.622-2.474a2.122,2.122,0,0,0-2.555,2.073c-.075.512-.1,1.032-.17,1.545-.322,2.228-.325,2.229,1.849,2.229,7.833,0,15.666-.015,23.5.008,3.509.01,5.355,1.9,5.372,5.405.012,2.334,0,4.668,0,7Z" transform="translate(0)" fill="#90c14f"/>
    <path id="Path_32920" data-name="Path 32920" d="M237.653,208.818a4.745,4.745,0,1,1-4.629-4.808A4.644,4.644,0,0,1,237.653,208.818Zm-4.695-2.33a2.254,2.254,0,1,0,2.214,2.3A2.254,2.254,0,0,0,232.958,206.488Z" transform="translate(-55.231 -42.096)" fill="#90c14f"/>
  </g>
</svg>
