<svg xmlns="http://www.w3.org/2000/svg" width="24" height="24" viewBox="0 0 24 24">
  <g id="profile" transform="translate(-512.311 -257.311)">
    <path id="Path_1271" data-name="Path 1271" d="M536.311,269.321a12,12,0,1,1-12.006-12.011A12.03,12.03,0,0,1,536.311,269.321Zm-22.291-.038a10.291,10.291,0,1,0,10.331-10.263A10.282,10.282,0,0,0,514.019,269.283Z" transform="translate(0 0)" fill="#8f8f8f"/>
    <path id="Path_1270" data-name="Path 1270" d="M733.155,432.452c-.319,0-.638,0-.956,0-.18,0-.249-.181-.25-.649,0-.5.065-.683.249-.684q.956,0,1.913,0c.179,0,.242.179.242.665s-.064.666-.241.667C733.793,432.454,733.474,432.452,733.155,432.452Z" transform="translate(-206.281 -157.275)" fill="#8f8f8f"/>
    <path id="Path_1272" data-name="Path 1272" d="M560.319,310.455c-.942,0-.962,0-.8-.932a6.777,6.777,0,0,1,3.551-5.049c.3-.162.4-.233.113-.541a4.161,4.161,0,0,1-.667-4.827,4.31,4.31,0,0,1,4.3-2.275,4.26,4.26,0,0,1,3.657,3.188,3.958,3.958,0,0,1-.937,3.83c-.351.387-.241.466.139.684a6.674,6.674,0,0,1,3.488,5.37c.043.41-.047.612-.508.559-.358-.041-.8.091-1.061-.074-.247-.155-.141-.631-.207-.963a5.161,5.161,0,0,0-10.134.165c-.006.036-.012.071-.018.107C561.1,310.456,561.1,310.456,560.319,310.455Zm3.43-9.467a2.574,2.574,0,1,0,2.624-2.5A2.587,2.587,0,0,0,563.749,300.989Z" transform="translate(-42.011 -35.182)" fill="#8f8f8f"/>
  </g>
</svg>
