<svg xmlns="http://www.w3.org/2000/svg" width="36" height="36" viewBox="0 0 36 36">
  <g id="Group_32429" data-name="Group 32429" transform="translate(-1631 -1705)">
    <g id="mail" transform="translate(1630.529 1704.699)">
      <rect id="Rectangle_17935" data-name="Rectangle 17935" width="36" height="36" rx="4" transform="translate(0.471 0.301)" fill="#90c14f"/>
    </g>
    <path id="Icon_awesome-chevron-up" data-name="Icon awesome-chevron-up" d="M9.89,8.967l7.84,7.84a.968.968,0,0,1,0,1.369l-.914.914a.968.968,0,0,1-1.368,0L9.206,12.879,2.963,19.092a.968.968,0,0,1-1.368,0l-.914-.914a.968.968,0,0,1,0-1.369l7.84-7.84A.968.968,0,0,1,9.89,8.967Z" transform="translate(1639.602 1709.317)" fill="#fff"/>
  </g>
</svg>
