<svg xmlns="http://www.w3.org/2000/svg" width="22" height="22" viewBox="0 0 22 22">
  <g id="setting" transform="translate(-2 -2)">
    <path id="Path_32905" data-name="Path 32905" d="M11.139,4.463a1.915,1.915,0,0,1,3.722,0A1.916,1.916,0,0,0,17.72,5.648a1.916,1.916,0,0,1,2.633,2.633,1.916,1.916,0,0,0,1.183,2.858,1.915,1.915,0,0,1,0,3.722,1.916,1.916,0,0,0-1.184,2.859,1.916,1.916,0,0,1-2.633,2.633,1.916,1.916,0,0,0-2.858,1.183,1.915,1.915,0,0,1-3.722,0A1.916,1.916,0,0,0,8.28,20.352a1.916,1.916,0,0,1-2.633-2.633,1.916,1.916,0,0,0-1.183-2.858,1.915,1.915,0,0,1,0-3.722A1.916,1.916,0,0,0,5.648,8.28,1.916,1.916,0,0,1,8.281,5.647a1.914,1.914,0,0,0,2.858-1.183Z" fill="none" stroke="#8f8f8f" stroke-linecap="round" stroke-linejoin="round" stroke-width="2"/>
    <path id="Path_32906" data-name="Path 32906" d="M9,12.333A3.333,3.333,0,1,0,12.333,9,3.333,3.333,0,0,0,9,12.333" transform="translate(0.667 0.667)" fill="none" stroke="#8f8f8f" stroke-linecap="round" stroke-linejoin="round" stroke-width="2"/>
  </g>
</svg>
