<svg xmlns="http://www.w3.org/2000/svg" width="93.233" height="30" viewBox="0 0 93.233 30">
  <g id="sidebar_logo" transform="translate(0)">
    <g id="Group_32127" data-name="Group 32127" transform="translate(27.477 2.727)">
      <path id="Path_32159" data-name="Path 32159" d="M-292.949,490c.542-1.333,1.049-2.573,1.55-3.815.809-2.006,1.62-4.011,2.411-6.024a.577.577,0,0,1,.645-.447c1.316.028,2.633.019,3.949,0,.293,0,.391.067.39.377q-.015,6.031,0,12.062c0,.305-.09.4-.391.386-.693-.02-1.389-.03-2.081,0-.387.018-.464-.117-.463-.478.014-3.166.009-6.333.009-9.5v-.34c-.238.081-.235.286-.294.43q-1.942,4.718-3.863,9.445a.58.58,0,0,1-.657.444,22.946,22.946,0,0,0-2.347,0c-.445.027-.606-.154-.759-.532-1.255-3.1-2.53-6.2-3.8-9.3a.862.862,0,0,0-.306-.507v1.127c0,2.9-.006,5.8.011,8.7,0,.388-.074.532-.491.506a15.878,15.878,0,0,0-1.92,0c-.434.025-.573-.088-.566-.546.028-1.85.012-3.7.012-5.55,0-2.081.012-4.163-.011-6.244,0-.414.119-.5.508-.492,1.28.025,2.562.022,3.842,0a.573.573,0,0,1,.652.431c1.22,3.081,2.467,6.152,3.707,9.225C-293.142,489.555-293.064,489.732-292.949,490Z" transform="translate(301.925 -479.653)" fill="#181818"/>
      <path id="Path_32160" data-name="Path 32160" d="M-139.4,485.883c0-1.973.01-3.947-.009-5.92,0-.367.081-.466.46-.47,2.13-.022,4.261-.15,6.39.031a11.152,11.152,0,0,1,4.7,1.208,4.42,4.42,0,0,1,2.34,3.817,24.326,24.326,0,0,1,0,2.45,4.731,4.731,0,0,1-3.116,4.371,14.934,14.934,0,0,1-5.3.985c-1.688.078-3.374-.032-5.061-.029-.335,0-.413-.093-.411-.417C-139.4,489.9-139.4,487.892-139.4,485.883Zm5.135-3.6c-.62,0-1.24.008-1.86,0-.221,0-.308.045-.307.289q.013,3.33,0,6.661c0,.218.056.329.291.329a20.68,20.68,0,0,0,4.827-.24,3.419,3.419,0,0,0,2.39-1.533,3.818,3.818,0,0,0,.373-2A2.85,2.85,0,0,0-130.9,482.6,11.385,11.385,0,0,0-134.268,482.282Z" transform="translate(175.554 -479.43)" fill="#181818"/>
      <path id="Path_32161" data-name="Path 32161" d="M-200.34,492.551c-1,0-1.92-.012-2.844.007-.271.006-.364-.132-.461-.337-.358-.752-.736-1.494-1.087-2.248a.565.565,0,0,0-.6-.382q-3.12.026-6.241,0a.59.59,0,0,0-.631.419c-.331.743-.71,1.465-1.049,2.205a.519.519,0,0,1-.57.345c-.764-.025-1.53-.032-2.293,0-.451.019-.453-.1-.274-.457,1.161-2.292,2.306-4.592,3.457-6.888.85-1.7,1.71-3.385,2.543-5.088a.593.593,0,0,1,.644-.392c.87.024,1.742.014,2.614,0a.5.5,0,0,1,.539.3q3.057,6.108,6.137,12.2C-200.418,492.319-200.4,492.4-200.34,492.551Zm-10.4-5.515c1.474,0,2.857-.006,4.239,0,.345,0,.277-.145.176-.349-.338-.68-.671-1.364-1-2.046l-1.135-2.321Z" transform="translate(235.498 -479.667)" fill="#181818"/>
      <path id="Path_32162" data-name="Path 32162" d="M-62.93,492.516c-.991,0-1.881-.018-2.769.01a.557.557,0,0,1-.593-.394c-.355-.753-.745-1.49-1.1-2.244a.49.49,0,0,0-.52-.333q-3.174.019-6.349,0a.5.5,0,0,0-.524.334c-.358.771-.739,1.532-1.106,2.3-.1.2-.2.341-.469.335-.923-.019-1.847-.008-2.771-.008-.05-.215.088-.353.163-.5q2.978-5.968,5.957-11.934a.562.562,0,0,1,.6-.382,23.813,23.813,0,0,0,2.4-.007.877.877,0,0,1,.958.605c1.338,2.7,2.694,5.389,4.045,8.082C-64.329,489.733-63.646,491.09-62.93,492.516Zm-10.422-5.543H-68.8l-2.291-4.686Z" transform="translate(128.686 -479.627)" fill="#181818"/>
      <path id="Path_32170" data-name="Path 32170" d="M-236.982,571.49a3.3,3.3,0,0,1-2.173-.747,2.326,2.326,0,0,1-.084-3.659,3.582,3.582,0,0,1,4.477-.085,2.324,2.324,0,0,1,0,3.76A3.323,3.323,0,0,1-236.982,571.49Zm.024-.486a2.344,2.344,0,0,0,2.525-2,2.351,2.351,0,0,0-2.6-2.261,2.4,2.4,0,0,0-2.43,2.019A2.311,2.311,0,0,0-236.957,571Z" transform="translate(253.84 -546.946)" fill="#181818"/>
      <path id="Path_32171" data-name="Path 32171" d="M-268.058,569.659l1.892,2.017a.849.849,0,0,1-.993-.263c-.468-.534-.986-1.024-1.454-1.558a.8.8,0,0,0-.651-.266c-.27-.009-.377.06-.362.352.025.5,0,1,.014,1.494.008.24-.084.31-.309.3-.2-.006-.285-.061-.284-.278q.009-2.268,0-4.536c0-.256.114-.287.323-.284.658.011,1.316,0,1.974.014a2.026,2.026,0,0,1,.472.072,1.486,1.486,0,0,1,1.281,1.421,1.573,1.573,0,0,1-1.4,1.39C-267.707,569.566-267.876,569.51-268.058,569.659Zm-.444-.526a2.176,2.176,0,0,0,1.255-.235.88.88,0,0,0-.026-1.585,2.293,2.293,0,0,0-1.233-.228c-1.109.01-1.109,0-1.109,1.121C-269.615,569.133-269.615,569.133-268.5,569.134Z" transform="translate(277.262 -547.245)" fill="#181818"/>
      <path id="Path_32172" data-name="Path 32172" d="M-133.878,569.573l1.987,2.106a.818.818,0,0,1-.992-.264c-.465-.535-.976-1.031-1.459-1.551a.655.655,0,0,0-.434-.262c-.406-.043-.629.026-.572.52.051.438,0,.888.014,1.331.009.254-.116.294-.324.292-.192,0-.288-.053-.287-.273q.01-2.292,0-4.584c0-.2.09-.239.256-.236.763.012,1.527.008,2.29.036a1.766,1.766,0,0,1,.89.328,1.283,1.283,0,0,1,.035,2.185A2.214,2.214,0,0,1-133.878,569.573Zm-1.459-1.471c0,.267,0,.533,0,.8,0,.1-.032.249.125.238a4.967,4.967,0,0,0,2.2-.215.889.889,0,0,0,.516-.809.9.9,0,0,0-.526-.8,2.412,2.412,0,0,0-1.294-.216C-135.336,567.1-135.336,567.1-135.337,568.1Z" transform="translate(172.858 -547.254)" fill="#181818"/>
      <path id="Path_32173" data-name="Path 32173" d="M-24.715,571.5a3.309,3.309,0,0,1-1.98-.5c-.115-.072-.384-.086-.23-.371.141-.261.275-.177.462-.065a3.41,3.41,0,0,0,2.459.415,1.435,1.435,0,0,0,.675-.292.72.72,0,0,0-.156-1.288,6.549,6.549,0,0,0-1.5-.346,4.844,4.844,0,0,1-1.176-.32,1.147,1.147,0,0,1-.172-2.031,3.331,3.331,0,0,1,3.567.2.226.226,0,0,1,.054.35c-.125.2-.229.134-.377.031a2.869,2.869,0,0,0-2.225-.484,1.389,1.389,0,0,0-.541.21.775.775,0,0,0-.4.706.687.687,0,0,0,.52.606,13.258,13.258,0,0,0,1.814.4,5.214,5.214,0,0,1,.618.157,1.164,1.164,0,0,1,.906,1.056,1.256,1.256,0,0,1-.766,1.281A3.155,3.155,0,0,1-24.715,571.5Z" transform="translate(88.118 -546.964)" fill="#181818"/>
      <path id="Path_32174" data-name="Path 32174" d="M-165.875,569.142c0-.728.011-1.457-.006-2.185-.006-.251.057-.335.32-.331.941.016,1.883.008,2.825,0,.17,0,.3-.011.3.237s-.147.23-.309.23c-.711,0-1.422.012-2.132-.006-.3-.008-.434.052-.441.4-.029,1.454-.042,1.453,1.409,1.453.284,0,.571-.02.852.007.175.017.472-.156.486.214s-.288.232-.463.236c-.639.016-1.279.018-1.919,0-.273-.007-.377.07-.36.354.028.478-.152,1.089.082,1.4.214.281.865.068,1.323.082.391.012.782.006,1.173,0,.171,0,.308-.007.3.238-.009.188-.079.247-.254.247-.977,0-1.955-.008-2.932,0-.283,0-.256-.167-.255-.347Q-165.873,570.262-165.875,569.142Z" transform="translate(196.136 -547.235)" fill="#181818"/>
      <path id="Path_32175" data-name="Path 32175" d="M-54.907,569.148c0-.728.016-1.457-.007-2.184-.009-.291.086-.355.356-.35.906.015,1.811,0,2.717.009.153,0,.368-.095.374.218.006.351-.238.238-.4.24-.675.009-1.35.018-2.024,0-.312-.01-.426.063-.432.4-.028,1.45-.041,1.45,1.4,1.45.337,0,.675,0,1.012,0,.159,0,.316-.024.317.231s-.149.233-.312.233c-.675,0-1.35.013-2.024-.005-.288-.008-.421.059-.392.375.043.472-.191,1.1.093,1.375.245.235.873.077,1.332.085.373.007.746,0,1.119,0,.158,0,.313-.037.313.224,0,.276-.157.261-.345.26-.924,0-1.847-.01-2.77,0-.255,0-.337-.073-.332-.331C-54.9,570.64-54.908,569.894-54.907,569.148Z" transform="translate(109.847 -547.222)" fill="#181818"/>
      <path id="Path_32177" data-name="Path 32177" d="M-197.577,569.171c0-.729.009-1.458,0-2.188,0-.257.035-.38.339-.367.639.027,1.28.01,1.92.015a2.079,2.079,0,0,1,.825.185,1.4,1.4,0,0,1,.943,1.35,1.458,1.458,0,0,1-1.01,1.309,4.936,4.936,0,0,1-1.953.147c-.386-.008-.546.067-.5.487a6.332,6.332,0,0,1,0,1.119c-.012.188.156.484-.267.5s-.29-.271-.292-.47C-197.583,570.559-197.577,569.865-197.577,569.171Zm.57-1.035c0,.266,0,.531,0,.8,0,.121-.024.28.159.27a5.172,5.172,0,0,0,2.093-.2.943.943,0,0,0,.6-.866.938.938,0,0,0-.591-.871,2.534,2.534,0,0,0-1.189-.2C-197.006,567.073-197.006,567.07-197.007,568.137Z" transform="translate(220.791 -547.226)" fill="#181818"/>
      <path id="Path_32178" data-name="Path 32178" d="M-301.892,569.148c0-.728.01-1.455-.005-2.183-.005-.253.065-.342.327-.334.674.02,1.348.011,2.022.019a1.928,1.928,0,0,1,1,.31,1.35,1.35,0,0,1-.041,2.39,3.8,3.8,0,0,1-2.023.293c-.693.005-.693,0-.693.683,0,.373-.008.746,0,1.118.005.2-.052.288-.268.286s-.327-.045-.324-.293c.012-.763,0-1.526,0-2.289Zm.588-1.044c0,.284,0,.569,0,.853,0,.119-.034.271.162.26a5.888,5.888,0,0,0,2-.159.981.981,0,0,0,.69-.922.984.984,0,0,0-.706-.911,2.751,2.751,0,0,0-1.1-.145C-301.3,567.086-301.3,567.082-301.3,568.1Z" transform="translate(301.903 -547.238)" fill="#181818"/>
      <path id="Path_32180" data-name="Path 32180" d="M-104.739,569.409c0-.621-.022-1.244.009-1.863.018-.366-.119-.456-.455-.435-.425.026-.852,0-1.278.01-.183,0-.3-.016-.293-.251.006-.211.12-.215.274-.215q2.024,0,4.047,0c.145,0,.276-.015.283.2s-.093.264-.285.259c-.443-.009-.889.022-1.331-.009-.346-.024-.412.113-.408.427.015,1.26.008,2.52,0,3.78,0,.193.089.432-.278.435s-.285-.231-.287-.428C-104.742,570.687-104.739,570.048-104.739,569.409Z" transform="translate(150.16 -547.257)" fill="#181818"/>
      <path id="Path_32181" data-name="Path 32181" d="M-73.128,569.131c0-.729.005-1.458,0-2.188,0-.2,0-.329.271-.327s.326.093.324.342q-.016,2.214,0,4.429c0,.257-.084.336-.338.336-.284,0-.256-.17-.255-.351,0-.747,0-1.494,0-2.241Z" transform="translate(124.013 -547.227)" fill="#181818"/>
    </g>
    <g id="Group_32128" data-name="Group 32128">
      <path id="Path_32157" data-name="Path 32157" d="M99.334,383.96c-.658.518-1.272.992-1.874,1.48a.247.247,0,0,1-.376-.005c-.6-.488-1.214-.964-1.861-1.474v24.123h-.054c-.409-8.9-.818-17.807-1.231-26.773l1.147.9c.693.545,1.389,1.085,2.075,1.638.125.1.19.036.27-.028q1.327-1.047,2.652-2.1c.159-.126.322-.247.533-.409l-1.236,26.916h-.045Z" transform="translate(-89.116 -381.312)" fill="#90c14f"/>
      <path id="Path_32163" data-name="Path 32163" d="M120.379,438.543c.2.156.361.27.51.395a.169.169,0,0,0,.256,0c.147-.125.3-.238.506-.392-.21,8.086-.419,16.118-.627,24.15H121C120.8,454.664,120.589,446.634,120.379,438.543Z" transform="translate(-112.854 -432.694)" fill="#90c14f"/>
      <path id="Path_32164" data-name="Path 32164" d="M170.357,433.853V423.207q0-5.421,0-10.842a1.285,1.285,0,0,1,1.032-1.306c.178-.034.249-.01.236.194-.048.758-.08,1.517-.122,2.275-.039.709-.085,1.418-.125,2.128q-.145,2.593-.287,5.185c-.056,1.019-.107,2.039-.163,3.058q-.169,3.119-.34,6.238c-.069,1.239-.143,2.478-.214,3.716Z" transform="translate(-157.723 -408.006)" fill="#90c14f"/>
      <path id="Path_32165" data-name="Path 32165" d="M71.7,433.481c-.03-.479-.065-.957-.091-1.436q-.134-2.459-.263-4.918-.149-2.777-.3-5.554-.147-2.7-.3-5.407c-.091-1.631-.187-3.261-.277-4.892-.019-.335,0-.345.336-.254a1.267,1.267,0,0,1,.921,1.145c.008.106.006.212.006.319q0,9.126,0,18.252,0,1.372,0,2.745Z" transform="translate(-68.045 -407.939)" fill="#90c14f"/>
      <path id="Path_32167" data-name="Path 32167" d="M48.005,445.644q-.095-1.476-.19-2.952-.141-2.188-.281-4.376c-.073-1.157-.143-2.315-.218-3.472-.107-1.67-.22-3.34-.325-5.01-.079-1.247-.146-2.5-.227-3.742-.01-.161.043-.174.179-.156a1.285,1.285,0,0,1,1.09,1.287c0,.073,0,.147,0,.221v18.2Z" transform="translate(-46.764 -421.369)" fill="#90c14f"/>
      <path id="Path_32168" data-name="Path 32168" d="M194.138,445.418v-.489q0-8.766-.007-17.532a1.311,1.311,0,0,1,.822-1.338,1.533,1.533,0,0,1,.285-.062c.138-.026.166.044.158.168q-.144,2.212-.282,4.423-.213,3.324-.427,6.648-.193,3.006-.384,6.013c-.046.723-.087,1.447-.13,2.17Z" transform="translate(-179.068 -421.424)" fill="#90c14f"/>
    </g>
  </g>
</svg>
