<svg xmlns="http://www.w3.org/2000/svg" width="14.004" height="14" viewBox="0 0 14.004 14">
  <g id="Group_32551" data-name="Group 32551" transform="translate(223.263 237.167)">
    <path id="Path_33067" data-name="Path 33067" d="M-209.271-234.895a1.99,1.99,0,0,1-1.285,1.736.171.171,0,0,0-.122.187q0,2.8,0,5.6a.178.178,0,0,0,.128.2,2.08,2.08,0,0,1,.682,3.392,2.08,2.08,0,0,1-3.4-.654.2.2,0,0,0-.214-.143q-2.784.005-5.568,0a.2.2,0,0,0-.213.146,2.075,2.075,0,0,1-2.349,1.222,2.057,2.057,0,0,1-1.643-2.1,2,2,0,0,1,1.28-1.86.172.172,0,0,0,.125-.185q0-2.805,0-5.61a.17.17,0,0,0-.125-.185,2.079,2.079,0,0,1-.824-3.233,2.085,2.085,0,0,1,3.532.483.214.214,0,0,0,.236.155q2.77-.006,5.54,0a.2.2,0,0,0,.226-.147,2.071,2.071,0,0,1,2.351-1.218A2.131,2.131,0,0,1-209.271-234.895Zm-2.765,4.721q0-1.4,0-2.8c0-.08-.005-.137-.1-.174a2,2,0,0,1-1.151-1.151.133.133,0,0,0-.146-.1q-2.833,0-5.666,0a.142.142,0,0,0-.154.105,1.983,1.983,0,0,1-1.141,1.14.142.142,0,0,0-.1.156q0,2.826,0,5.652a.151.151,0,0,0,.112.164,2,2,0,0,1,1.13,1.134.151.151,0,0,0,.167.108q2.819,0,5.638,0a.159.159,0,0,0,.174-.119,1.977,1.977,0,0,1,1.11-1.117.177.177,0,0,0,.129-.2C-212.037-228.3-212.035-229.239-212.035-230.174Zm-9.137-4.194a.688.688,0,0,0,.711-.721.71.71,0,0,0-.71-.717.734.734,0,0,0-.728.725A.71.71,0,0,0-221.172-234.368Zm9.109-.714a.691.691,0,0,0,.721.713.711.711,0,0,0,.715-.714.732.732,0,0,0-.73-.723A.711.711,0,0,0-212.063-235.081Zm-9.111,9.111a.713.713,0,0,0-.726.7.733.733,0,0,0,.736.732.712.712,0,0,0,.7-.713A.7.7,0,0,0-221.174-225.97Zm9.816,0a.691.691,0,0,0-.706.715.711.711,0,0,0,.707.722.73.73,0,0,0,.729-.723A.713.713,0,0,0-211.357-225.97Z" fill="#181818"/>
  </g>
</svg>
