<svg xmlns="http://www.w3.org/2000/svg" width="14.608" height="14.595" viewBox="0 0 14.608 14.595">
  <path id="star" d="M9.927,2.433,11.6,6.075a.77.77,0,0,0,.51.437l3.787.583a.659.659,0,0,1,.437,1.165L13.569,11.1a1.017,1.017,0,0,0-.219.656l.656,3.933a.731.731,0,0,1-1.02.8L9.563,14.6a.546.546,0,0,0-.656,0L5.484,16.49a.7.7,0,0,1-1.02-.8l.656-3.933A.734.734,0,0,0,4.9,11.1L2.134,8.26a.757.757,0,0,1,.437-1.238l3.787-.583A.625.625,0,0,0,6.868,6L8.543,2.361A.79.79,0,0,1,9.927,2.433Z" transform="translate(-1.956 -1.987)" fill="#fff"/>
</svg>
