<svg xmlns="http://www.w3.org/2000/svg" width="19.687" height="16" viewBox="0 0 19.687 16">
  <path id="twitter" d="M137.493,163.182a8.089,8.089,0,0,1-2.319.635,4.05,4.05,0,0,0,1.776-2.235,8.063,8.063,0,0,1-2.565.98,4.041,4.041,0,0,0-6.986,2.766,4.125,4.125,0,0,0,.1.919,11.47,11.47,0,0,1-8.325-4.221,4.046,4.046,0,0,0,1.25,5.393,4.03,4.03,0,0,1-1.829-.505v.052a4.041,4.041,0,0,0,3.24,3.961,4.1,4.1,0,0,1-1.824.069,4.041,4.041,0,0,0,3.773,2.8,8.105,8.105,0,0,1-5.017,1.73,8.232,8.232,0,0,1-.964-.056,11.487,11.487,0,0,0,17.683-9.677c0-.173,0-.349-.012-.522a8.211,8.211,0,0,0,2.014-2.09Z" transform="translate(-117.806 -161.288)" fill="#fff"/>
</svg>
