<svg xmlns="http://www.w3.org/2000/svg" width="40" height="40" viewBox="0 0 40 40">
  <path id="video_icon" d="M-556.881,131.027a20.023,20.023,0,0,1,19.907,20.092,20.023,20.023,0,0,1-20.092,19.907,20.026,20.026,0,0,1-19.907-20.092A20.026,20.026,0,0,1-556.881,131.027Zm-4.56,20q0,2.976,0,5.952c0,1.092.605,1.43,1.558.88l6.772-3.9c1.206-.7,2.414-1.386,3.616-2.088.812-.474.807-1.194,0-1.683-.063-.038-.128-.074-.192-.111l-10.2-5.879c-.957-.552-1.555-.217-1.557.882Q-561.444,148.051-561.44,151.027Z" transform="translate(576.974 -131.027)" fill="#fff"/>
</svg>
