<svg xmlns="http://www.w3.org/2000/svg" width="20" height="19.95" viewBox="0 0 20 19.95">
  <path id="Icon_material-slow-motion-video" data-name="Icon material-slow-motion-video" d="M14.1,10.834l-3.058-2.3v9.023l3.058-2.3L17.06,13.05Zm0,0-3.058-2.3v9.023l3.058-2.3L17.06,13.05Zm0,0-3.058-2.3v9.023l3.058-2.3L17.06,13.05ZM12.047,5.1V3.075A9.974,9.974,0,0,0,6.714,5.291L8.138,6.724A7.961,7.961,0,0,1,12.047,5.1ZM6.724,8.138,5.291,6.714a9.974,9.974,0,0,0-2.216,5.333H5.1A7.961,7.961,0,0,1,6.724,8.138ZM5.1,14.052H3.075a9.974,9.974,0,0,0,2.216,5.333l1.434-1.434A7.888,7.888,0,0,1,5.1,14.052Zm1.614,6.757a10.006,10.006,0,0,0,5.333,2.216V21a7.961,7.961,0,0,1-3.91-1.624L6.714,20.809ZM23.075,13.05A10.04,10.04,0,0,1,14.1,23.025V21a8.019,8.019,0,0,0,0-15.9V3.075A10.04,10.04,0,0,1,23.075,13.05Z" transform="translate(-3.075 -3.075)" fill="#fff"/>
</svg>
