<svg xmlns="http://www.w3.org/2000/svg" width="14.001" height="14" viewBox="0 0 14.001 14">
  <g id="Group_32550" data-name="Group 32550" transform="translate(457.728 94.33)">
    <path id="Path_33065" data-name="Path 33065" d="M-450.727-94.33a7.016,7.016,0,0,1,7,7,7.006,7.006,0,0,1-7.039,7,7.017,7.017,0,0,1-6.962-7A7.018,7.018,0,0,1-450.727-94.33Zm0,12.622a5.612,5.612,0,0,0,5.617-5.568,5.631,5.631,0,0,0-5.513-5.678,5.638,5.638,0,0,0-5.728,5.405A5.621,5.621,0,0,0-450.725-81.708Z" fill="#6b6b6b"/>
    <path id="Path_33066" data-name="Path 33066" d="M-289.882-17.082c0-.57-.006-1.139,0-1.709a.685.685,0,0,1,.908-.68.705.705,0,0,1,.469.735c0,.951,0,1.9,0,2.854a.327.327,0,0,0,.172.314q.824.539,1.636,1.094a.634.634,0,0,1,.287.632.649.649,0,0,1-.469.577.669.669,0,0,1-.593-.079c-.708-.469-1.417-.938-2.123-1.411a.692.692,0,0,1-.292-.618q0-.854,0-1.709Z" transform="translate(-161.535 -72.011)" fill="#6b6b6b"/>
  </g>
</svg>
