<svg xmlns="http://www.w3.org/2000/svg" width="32.659" height="60" viewBox="0 0 32.659 60">
  <g id="Group_31951" data-name="Group 31951" transform="translate(-7395.281 5713)">
    <path id="Path_32157" data-name="Path 32157" d="M104.731,386.607c-1.317,1.035-2.544,1.983-3.749,2.959a.494.494,0,0,1-.753-.01c-1.2-.976-2.429-1.927-3.721-2.947v48.247l-.108,0c-.819-17.807-1.637-35.615-2.461-53.546l2.294,1.8c1.386,1.089,2.779,2.169,4.15,3.277.25.2.379.072.541-.056q2.654-2.093,5.3-4.191c.318-.251.643-.494,1.065-.818l-2.473,53.832-.09,0Z" transform="translate(7310.987 -6094.312)" fill="#424242"/>
    <path id="Path_32163" data-name="Path 32163" d="M120.379,438.544c.406.312.721.541,1.02.789a.339.339,0,0,0,.511-.006c.294-.25.61-.475,1.012-.784-.42,16.172-.837,32.236-1.254,48.3h-.038C121.214,470.784,120.8,454.725,120.379,438.544Z" transform="translate(7289.952 -6139.844)" fill="#424242"/>
    <path id="Path_32164" data-name="Path 32164" d="M170.357,456.659V435.368q0-10.843,0-21.685a2.57,2.57,0,0,1,2.063-2.612c.357-.067.5-.021.471.388-.1,1.516-.159,3.034-.243,4.551-.078,1.419-.171,2.837-.25,4.256q-.29,5.185-.574,10.371c-.111,2.039-.215,4.078-.325,6.117q-.338,6.238-.681,12.476c-.137,2.478-.285,4.955-.428,7.433Z" transform="translate(7250.191 -6117.967)" fill="#424242"/>
    <path id="Path_32165" data-name="Path 32165" d="M72.933,455.992c-.061-.957-.129-1.914-.182-2.872q-.267-4.918-.525-9.837-.3-5.554-.6-11.108-.294-5.407-.591-10.814c-.182-3.262-.374-6.523-.555-9.784-.037-.669,0-.691.672-.508a2.533,2.533,0,0,1,1.842,2.289c.016.212.012.425.012.638q0,18.252,0,36.5,0,2.745,0,5.49Z" transform="translate(7329.659 -6117.907)" fill="#424242"/>
    <path id="Path_32167" data-name="Path 32167" d="M49.247,465.359q-.19-2.952-.38-5.9-.281-4.375-.561-8.751c-.147-2.315-.287-4.63-.436-6.944-.215-3.341-.44-6.68-.65-10.021-.157-2.494-.293-4.991-.454-7.485-.021-.322.085-.347.358-.312a2.57,2.57,0,0,1,2.18,2.573c.006.147,0,.294,0,.442v36.4Z" transform="translate(7348.517 -6129.809)" fill="#424242"/>
    <path id="Path_32168" data-name="Path 32168" d="M194.145,464.846v-.977q0-17.533-.015-35.065a2.623,2.623,0,0,1,1.643-2.677,3.049,3.049,0,0,1,.57-.125c.277-.052.332.088.316.336q-.288,4.423-.565,8.847-.426,6.649-.855,13.3-.386,6.012-.769,12.025c-.092,1.447-.173,2.893-.259,4.34Z" transform="translate(7231.276 -6129.858)" fill="#424242"/>
  </g>
</svg>
